<svg width="83" height="48" viewBox="0 0 83 48" fill="none" xmlns="http://www.w3.org/2000/svg">
<g clip-path="url(#clip0_436_9586)">
<path d="M66.549 0L58.0576 1.80442V36.0885H66.549V0Z" fill="#56BD82"/>
<path d="M42.3722 10.249C39.7808 10.249 37.2475 11.0175 35.0928 12.4572C32.938 13.897 31.2586 15.9433 30.2669 18.3375C29.2752 20.7317 29.0157 23.3663 29.5213 25.9079C30.0269 28.4496 31.2748 30.7843 33.1072 32.6167C34.9397 34.4492 37.2744 35.6971 39.816 36.2027C42.3577 36.7082 44.9922 36.4488 47.3864 35.457C49.7806 34.4653 51.827 32.7859 53.2667 30.6312C54.7065 28.4765 55.4749 25.9432 55.4749 23.3517C55.4746 19.8768 54.0941 16.5442 51.6369 14.0871C49.1797 11.6299 45.8472 10.2493 42.3722 10.249ZM42.3722 27.5974C41.5325 27.5974 40.7117 27.3484 40.0135 26.8819C39.3153 26.4154 38.7711 25.7523 38.4497 24.9765C38.1284 24.2007 38.0443 23.347 38.2081 22.5234C38.3719 21.6998 38.7763 20.9433 39.3701 20.3496C39.9639 19.7558 40.7204 19.3514 41.5439 19.1876C42.3675 19.0238 43.2212 19.1079 43.997 19.4292C44.7728 19.7506 45.4359 20.2947 45.9024 20.9929C46.3689 21.6911 46.6179 22.512 46.6179 23.3517C46.6179 24.4778 46.1706 25.5577 45.3744 26.3539C44.5782 27.1501 43.4983 27.5974 42.3722 27.5974Z" fill="#56BD82"/>
<path d="M42.3727 39.5088C43.2124 39.5088 44.0332 39.7578 44.7314 40.2243C45.4296 40.6908 45.9738 41.3539 46.2952 42.1297C46.6165 42.9055 46.7006 43.7592 46.5368 44.5828C46.373 45.4064 45.9686 46.1629 45.3748 46.7567C44.781 47.3504 44.0245 47.7548 43.2009 47.9186C42.3774 48.0824 41.5237 47.9984 40.7479 47.677C39.9721 47.3557 39.309 46.8115 38.8425 46.1133C38.376 45.4151 38.127 44.5942 38.127 43.7545C38.127 42.6285 38.5743 41.5485 39.3705 40.7523C40.1667 39.9561 41.2466 39.5088 42.3727 39.5088Z" fill="#56BD82"/>
<path d="M23.479 17.0064C24.5218 15.3177 25.095 13.3813 25.1392 11.3971C25.1835 9.41292 24.6973 7.45287 23.7308 5.71941C22.7643 3.98595 21.3525 2.54192 19.6414 1.53647C17.9302 0.531026 15.9816 0.000607238 13.9969 0L0.788086 0V36.0885H15.648C17.8587 36.0876 20.0192 35.4296 21.8551 34.198C23.6909 32.9665 25.1192 31.217 25.9585 29.1718C26.7978 27.1267 27.0102 24.8782 26.5687 22.7121C26.1272 20.5459 25.0518 18.5599 23.479 17.0064ZM9.29128 8.4914H14.0087C14.7125 8.4914 15.3874 8.77097 15.8851 9.26861C16.3827 9.76625 16.6623 10.4412 16.6623 11.145C16.6623 11.8487 16.3827 12.5237 15.8851 13.0213C15.3874 13.519 14.7125 13.7985 14.0087 13.7985H9.29128V8.4914ZM15.6598 27.597H9.29128V22.2899H15.6598C16.3636 22.2899 17.0385 22.5695 17.5362 23.0671C18.0338 23.5648 18.3134 24.2397 18.3134 24.9435C18.3134 25.6473 18.0338 26.3222 17.5362 26.8198C17.0385 27.3175 16.3636 27.597 15.6598 27.597Z" fill="#56BD82"/>
<path d="M82.5887 19.224V10.7326H78.343V4.24609L69.8516 6.05052V28.022C69.8516 33.1994 73.0712 36.1832 77.8123 36.4309C77.8594 36.4309 77.9184 36.4427 77.9656 36.4427H78.0481C78.1543 36.4427 78.2486 36.4544 78.3548 36.4544H78.4609C79.9072 36.448 81.3295 36.0834 82.6005 35.393V29.1424C81.9816 29.3104 81.3429 29.3938 80.7017 29.3901C79.0034 29.3901 78.3548 27.9041 78.3548 25.8874V19.224H82.5887Z" fill="#56BD82"/>
</g>
<defs>
<clipPath id="clip0_436_9586">
<rect width="81.8123" height="48" fill="white" transform="translate(0.788086)"/>
</clipPath>
</defs>
</svg>
