<svg width="13" height="16" viewBox="0 0 13 16" fill="none" xmlns="http://www.w3.org/2000/svg">
<path d="M8 6.00033H9.33333V7.33366H8V6.00033ZM9.33333 3.33366H8V4.66699H9.33333V3.33366ZM5.33333 10.0003H6.66667V8.66699H5.33333V10.0003ZM6.66667 3.33366H5.33333V4.66699H6.66667V3.33366ZM5.33333 7.33366H6.66667V6.00033H5.33333V7.33366ZM4 3.33366H2.66667V4.66699H4V3.33366ZM4 6.00033H2.66667V7.33366H4V6.00033ZM7.7 14.0003H6.66667V11.667H5.33333V14.0003H1.33333V2.00033H10.6667V7.35366C11.14 7.39366 11.5933 7.54033 12 7.75366V0.666992H0V15.3337H8.60667C8.33333 14.9603 8 14.507 7.7 14.0003ZM2.66667 12.667H4V11.3337H2.66667V12.667ZM4 8.66699H2.66667V10.0003H4V8.66699ZM12.6667 11.0003C12.6667 12.7337 10.3333 15.3337 10.3333 15.3337C10.3333 15.3337 8 12.7337 8 11.0003C8 9.73366 9.06667 8.66699 10.3333 8.66699C11.6 8.66699 12.6667 9.73366 12.6667 11.0003ZM11.1333 11.067C11.1333 10.667 10.7333 10.267 10.3333 10.267C9.93333 10.267 9.53333 10.6003 9.53333 11.067C9.53333 11.467 9.86667 11.867 10.3333 11.867C10.8 11.867 11.2 11.467 11.1333 11.067Z" fill="#FCFCFC"/>
</svg>
