<svg width="53" height="20" viewBox="0 0 53 20" fill="none" xmlns="http://www.w3.org/2000/svg">
<path d="M5.28484 12.5C4.80995 12.5 4.40226 12.3964 4.06178 12.1892C3.72129 11.9774 3.45921 11.6851 3.27552 11.3122C3.09184 10.9346 3 10.4995 3 10.0069C3 9.51427 3.09184 9.07919 3.27552 8.70166C3.45921 8.32413 3.72129 8.02947 4.06178 7.81768C4.40226 7.60589 4.80995 7.5 5.28484 7.5C5.84932 7.5 6.31077 7.64503 6.66918 7.93508C7.03206 8.22053 7.25831 8.62339 7.34791 9.14365H6.40037C6.34213 8.88122 6.21669 8.67634 6.02405 8.52901C5.83588 8.37707 5.585 8.3011 5.2714 8.3011C4.83683 8.3011 4.49634 8.45304 4.24994 8.75691C4.00354 9.06077 3.88033 9.47744 3.88033 10.0069C3.88033 10.5364 4.00354 10.953 4.24994 11.2569C4.49634 11.5562 4.83683 11.7058 5.2714 11.7058C5.585 11.7058 5.83588 11.6367 6.02405 11.4986C6.21669 11.3559 6.34213 11.1602 6.40037 10.9116H7.34791C7.25831 11.4088 7.03206 11.7979 6.66918 12.0787C6.31077 12.3596 5.84932 12.5 5.28484 12.5Z" fill="#F9F9F9"/>
<path d="M10.1791 12.5C9.70871 12.5 9.29655 12.3941 8.94262 12.1823C8.59318 11.9705 8.31765 11.6782 8.11605 11.3052C7.91893 10.9277 7.82036 10.4926 7.82036 10C7.82036 9.50737 7.91893 9.07459 8.11605 8.70166C8.31765 8.32413 8.59318 8.02947 8.94262 7.81768C9.29655 7.60589 9.70871 7.5 10.1791 7.5C10.645 7.5 11.055 7.60589 11.4089 7.81768C11.7628 8.02947 12.0384 8.32413 12.2355 8.70166C12.4326 9.07459 12.5312 9.50737 12.5312 10C12.5312 10.4926 12.4326 10.9277 12.2355 11.3052C12.0384 11.6782 11.7628 11.9705 11.4089 12.1823C11.055 12.3941 10.645 12.5 10.1791 12.5ZM10.1791 11.7058C10.6271 11.7058 10.9833 11.5539 11.2476 11.25C11.5164 10.9461 11.6508 10.5295 11.6508 10C11.6508 9.47053 11.5164 9.05387 11.2476 8.75C10.9833 8.44613 10.6271 8.2942 10.1791 8.2942C9.73111 8.2942 9.37271 8.44613 9.1039 8.75C8.8351 9.05387 8.7007 9.47053 8.7007 10C8.7007 10.5295 8.8351 10.9461 9.1039 11.25C9.37271 11.5539 9.73111 11.7058 10.1791 11.7058Z" fill="#F9F9F9"/>
<path d="M13.1562 12.4171V7.58287H14.1777L15.6763 10.6492L17.1547 7.58287H18.1762V12.4171H17.316V9.08149L16.0056 11.7265H15.3268L14.0164 9.08149V12.4171H13.1562Z" fill="#F9F9F9"/>
<path d="M18.9544 12.4171V7.58287H19.8146V12.4171H18.9544Z" fill="#F9F9F9"/>
<path d="M20.5919 12.4171V7.58287H21.4521L23.663 10.9876V7.58287H24.5232V12.4171H23.663L21.4521 9.01934V12.4171H20.5919Z" fill="#F9F9F9"/>
<path d="M27.3571 12.5C26.9135 12.5 26.526 12.3964 26.1945 12.1892C25.863 11.982 25.6054 11.6943 25.4217 11.326C25.238 10.953 25.1462 10.5203 25.1462 10.0276C25.1462 9.53039 25.2402 9.093 25.4284 8.71547C25.621 8.33333 25.8921 8.03637 26.2415 7.82459C26.5955 7.6082 27.0143 7.5 27.4982 7.5C28.0492 7.5 28.5062 7.63582 28.8691 7.90746C29.232 8.1791 29.4672 8.55433 29.5747 9.03315H28.6137C28.5421 8.80755 28.4121 8.6326 28.224 8.50829C28.0358 8.37937 27.7939 8.31492 27.4982 8.31492C27.0278 8.31492 26.6649 8.46915 26.4095 8.77762C26.1542 9.08149 26.0265 9.50046 26.0265 10.0345C26.0265 10.5686 26.1519 10.983 26.4028 11.2776C26.6582 11.5677 27.0031 11.7127 27.4377 11.7127C27.8633 11.7127 28.1836 11.5953 28.3987 11.3605C28.6182 11.1211 28.7504 10.808 28.7952 10.4213H27.6057V9.75829H29.6621V12.4171H28.8691L28.8019 11.7818C28.6496 12.012 28.4592 12.1892 28.2307 12.3135C28.0022 12.4378 27.711 12.5 27.3571 12.5Z" fill="#F9F9F9"/>
<path d="M33.4369 12.5C33.0919 12.5 32.7873 12.4401 32.5229 12.3204C32.2586 12.1961 32.0503 12.0212 31.898 11.7956C31.7457 11.5654 31.6673 11.2868 31.6628 10.9599H32.57C32.5789 11.1855 32.6573 11.3766 32.8052 11.5331C32.9575 11.6851 33.1658 11.761 33.4302 11.761C33.6586 11.761 33.8401 11.7058 33.9745 11.5953C34.1089 11.4802 34.1761 11.3283 34.1761 11.1395C34.1761 10.9415 34.1156 10.7873 33.9947 10.6768C33.8782 10.5663 33.7214 10.4765 33.5242 10.4075C33.3271 10.3384 33.1166 10.2647 32.8926 10.1865C32.5297 10.0576 32.2519 9.8918 32.0593 9.68923C31.8711 9.48665 31.777 9.21731 31.777 8.88122C31.7725 8.59576 31.8375 8.35175 31.9719 8.14917C32.1108 7.94199 32.2989 7.78315 32.5364 7.67265C32.7738 7.55755 33.0471 7.5 33.3562 7.5C33.6698 7.5 33.9454 7.55755 34.1828 7.67265C34.4247 7.78775 34.6129 7.94889 34.7473 8.15608C34.8862 8.36326 34.9601 8.60958 34.9691 8.89503H34.0484C34.0439 8.72468 33.979 8.57505 33.8535 8.44613C33.7326 8.31261 33.5623 8.24586 33.3428 8.24586C33.1546 8.24125 32.9956 8.28959 32.8657 8.39088C32.7402 8.48757 32.6775 8.63029 32.6775 8.81906C32.6775 8.9802 32.7268 9.10912 32.8254 9.2058C32.9239 9.29788 33.0583 9.37615 33.2286 9.44061C33.3988 9.50506 33.5937 9.57413 33.8132 9.64779C34.0462 9.73066 34.259 9.82735 34.4516 9.93785C34.6443 10.0483 34.7988 10.1957 34.9153 10.3798C35.0318 10.5594 35.09 10.7919 35.09 11.0773C35.09 11.3306 35.0273 11.5654 34.9019 11.7818C34.7764 11.9982 34.5905 12.1731 34.3441 12.3066C34.0977 12.4355 33.7953 12.5 33.4369 12.5Z" fill="#F9F9F9"/>
<path d="M37.9103 12.5C37.4399 12.5 37.0277 12.3941 36.6738 12.1823C36.3244 11.9705 36.0489 11.6782 35.8473 11.3052C35.6501 10.9277 35.5516 10.4926 35.5516 10C35.5516 9.50737 35.6501 9.07459 35.8473 8.70166C36.0489 8.32413 36.3244 8.02947 36.6738 7.81768C37.0277 7.60589 37.4399 7.5 37.9103 7.5C38.3762 7.5 38.7862 7.60589 39.1401 7.81768C39.494 8.02947 39.7696 8.32413 39.9667 8.70166C40.1638 9.07459 40.2624 9.50737 40.2624 10C40.2624 10.4926 40.1638 10.9277 39.9667 11.3052C39.7696 11.6782 39.494 11.9705 39.1401 12.1823C38.7862 12.3941 38.3762 12.5 37.9103 12.5ZM37.9103 11.7058C38.3583 11.7058 38.7145 11.5539 38.9788 11.25C39.2476 10.9461 39.382 10.5295 39.382 10C39.382 9.47053 39.2476 9.05387 38.9788 8.75C38.7145 8.44613 38.3583 8.2942 37.9103 8.2942C37.4623 8.2942 37.1039 8.44613 36.8351 8.75C36.5663 9.05387 36.4319 9.47053 36.4319 10C36.4319 10.5295 36.5663 10.9461 36.8351 11.25C37.1039 11.5539 37.4623 11.7058 37.9103 11.7058Z" fill="#F9F9F9"/>
<path d="M43.0916 12.5C42.6212 12.5 42.2091 12.3941 41.8551 12.1823C41.5057 11.9705 41.2302 11.6782 41.0286 11.3052C40.8314 10.9277 40.7329 10.4926 40.7329 10C40.7329 9.50737 40.8314 9.07459 41.0286 8.70166C41.2302 8.32413 41.5057 8.02947 41.8551 7.81768C42.2091 7.60589 42.6212 7.5 43.0916 7.5C43.5576 7.5 43.9675 7.60589 44.3214 7.81768C44.6753 8.02947 44.9509 8.32413 45.148 8.70166C45.3451 9.07459 45.4437 9.50737 45.4437 10C45.4437 10.4926 45.3451 10.9277 45.148 11.3052C44.9509 11.6782 44.6753 11.9705 44.3214 12.1823C43.9675 12.3941 43.5576 12.5 43.0916 12.5ZM43.0916 11.7058C43.5396 11.7058 43.8958 11.5539 44.1601 11.25C44.4289 10.9461 44.5633 10.5295 44.5633 10C44.5633 9.47053 44.4289 9.05387 44.1601 8.75C43.8958 8.44613 43.5396 8.2942 43.0916 8.2942C42.6436 8.2942 42.2852 8.44613 42.0164 8.75C41.7476 9.05387 41.6132 9.47053 41.6132 10C41.6132 10.5295 41.7476 10.9461 42.0164 11.25C42.2852 11.5539 42.6436 11.7058 43.0916 11.7058Z" fill="#F9F9F9"/>
<path d="M46.0687 12.4171V7.58287H46.9289L49.1398 10.9876V7.58287H50V12.4171H49.1398L46.9289 9.01934V12.4171H46.0687Z" fill="#F9F9F9"/>
</svg>
