<svg width="56" height="56" viewBox="0 0 56 56" fill="none" xmlns="http://www.w3.org/2000/svg">
<path d="M21.875 0.131237C19.425 0.360924 16.8766 1.07186 14.8422 2.08905C12.5781 3.22655 10.8391 4.59373 7.88594 7.53592C5.14063 10.2594 3.4125 11.55 1.30156 12.425C0.557813 12.7312 0.273438 12.9062 0.153125 13.1359C0.021875 13.3875 0 14.3609 0 18.8672C0 24.7515 0 24.7515 0.601563 25.025C1.18125 25.2984 5.79688 25.1125 7.15313 24.7625L7.47031 24.6859L7.40469 25.1672C7.24063 26.3047 7.19688 28.6672 7.31719 29.914C7.79844 34.8141 9.87656 39.2219 13.3328 42.6672C15.8594 45.1828 18.9 46.9875 22.2578 47.9609C23.1984 48.2344 25.1672 48.5953 26.5016 48.7266L27.125 48.7922L26.4906 49.2625C25.1781 50.2359 24.1281 51.8547 23.7891 53.4406C23.4828 54.8734 23.625 55.6172 24.2703 55.8797C24.7734 56.0984 33.6875 55.9781 35.1859 55.7484C36.5203 55.5297 38.1938 55.125 39.2875 54.7312C40.9391 54.1406 43.5969 52.6531 43.8484 52.1828C44.0781 51.7672 43.9906 51.1984 43.6516 50.8484C43.1703 50.3672 42.8094 50.4219 41.6391 51.1547C39.3094 52.5875 36.8156 53.3969 33.6984 53.7031C33.075 53.7578 31.0734 53.8125 29.2578 53.8125H25.9328L26.0203 53.5062C26.2172 52.85 26.7422 51.9859 27.3 51.45C28.3391 50.4219 29.5969 50.0062 33.6875 49.3281C36.4547 48.8687 37.9969 48.3219 39.6484 47.2172C41.1469 46.2109 44.0016 43.4875 44.1438 42.9297C44.3406 42.1422 43.6078 41.4094 42.8094 41.6062C42.6563 41.65 41.9453 42.2625 41.2125 42.9953C39.7688 44.4391 38.4453 45.4891 37.5375 45.9156C36.0063 46.6156 34.4203 45.6312 34.4203 43.9797C34.4203 43.0172 34.7047 42.6016 35.9188 41.8141C36.3563 41.5297 37.5594 40.4687 38.7625 39.2875C40.0094 38.0734 41.2781 36.9469 41.8906 36.5094C43.05 35.6891 45.3359 34.5078 46.5938 34.0922C48.5953 33.425 50.8703 33.0312 52.7844 33.0312H53.8125V37.2859V41.5406L52.8828 42C51.8766 42.5031 50.2797 43.5312 49.6016 44.1109C49.2078 44.45 49.1641 44.5375 49.1641 45.0078C49.1641 45.4344 49.2188 45.5656 49.4703 45.7844C49.8422 46.1016 50.4547 46.1344 50.8703 45.85C51.0344 45.7516 51.5266 45.4125 51.9641 45.1062C52.9156 44.45 54.1953 43.75 54.9391 43.4766C55.2234 43.3672 55.5844 43.1375 55.7266 42.9625L56 42.6344V37.1766C56 31.1719 56.0109 31.2266 55.3438 30.9531C54.8953 30.7672 50.7391 30.8766 49.4922 31.1062C49.0219 31.1937 48.6063 31.2594 48.5844 31.2375C48.5734 31.2156 48.6063 30.6906 48.6719 30.0781C49.6891 20.1469 43.3781 10.8281 33.7422 8.03905C32.8016 7.76561 30.8328 7.40467 29.4984 7.27342L28.875 7.2078L29.5094 6.73749C30.3953 6.08124 31.1063 5.22811 31.6094 4.19999C32.2656 2.87655 32.55 1.26873 32.2438 0.601547C31.9813 0.0109215 31.8828 -1.52588e-05 27.2125 0.0109215C24.85 0.021862 22.4438 0.0765495 21.875 0.131237ZM29.9797 2.49374C29.7828 3.14999 29.2578 4.01405 28.7 4.54998C27.65 5.57811 26.4031 5.99374 22.3125 6.67186C19.2828 7.17499 17.85 7.72186 15.925 9.08905C14.7 9.96405 11.9656 12.6219 11.8563 13.0375C11.6594 13.8578 12.3813 14.5906 13.1906 14.3937C13.3438 14.35 14.0547 13.7375 14.7875 13.0047C16.2313 11.5609 17.5547 10.5109 18.4625 10.0844C20.2234 9.27499 22.0391 10.7734 21.5031 12.6C21.3172 13.2562 20.9563 13.639 20.0156 14.2297C19.6875 14.4265 18.4516 15.5312 17.2813 16.6797C14.4813 19.4031 12.8078 20.5734 10.3359 21.5359C7.98438 22.4656 6.26719 22.8265 3.75156 22.9359L2.1875 23.0015V18.725V14.4484L3.01875 14.0547C3.99219 13.5844 5.99375 12.25 6.94531 11.4515C7.30625 11.1344 8.68438 9.8328 10.0078 8.53123C12.6766 5.92811 13.8141 5.04217 15.6953 4.10155C17.1281 3.39061 18.4625 2.93124 20.0156 2.62498C21.7875 2.27499 22.7391 2.2203 26.5453 2.19842L30.0672 2.18748L29.9797 2.49374ZM31.1172 9.66874C33.9938 10.1828 36.6844 11.3422 39.0578 13.0703L39.9547 13.7265L38.325 13.7922C34.3656 13.9562 31.4234 15.1156 30.4828 16.8984C30.1438 17.5219 30.1547 18.8015 30.4828 19.4359C31.0297 20.4531 31.9047 20.8469 34.475 21.2078C36.05 21.4375 36.75 21.689 36.9797 22.1156C37.1875 22.5094 37.1109 23.2969 36.75 24.5547C36.1813 26.5125 36.2797 27.6937 37.0891 28.8203C37.7672 29.7609 38.7078 30.2422 40.9609 30.7781C41.5844 30.9312 42.3172 31.1609 42.5906 31.2922C43.1047 31.5328 43.9688 32.375 43.9688 32.6375C43.9688 32.725 43.5641 32.9984 43.0719 33.25C40.9609 34.3328 39.4188 35.5141 37.1 37.8328C36.0281 38.9156 35.0875 39.7469 34.6063 40.0641C33.1953 40.9609 32.5172 41.8906 32.2656 43.3016C32.1344 44.0453 32.1781 44.5812 32.4516 45.4234C32.5391 45.7187 32.5938 45.9703 32.5719 45.9922C32.4188 46.1562 29.1047 46.6375 28.9844 46.5281C28.8531 46.3859 28.7438 43.225 28.8422 42.4156C28.9844 41.3766 29.1375 41.1797 30.2422 40.6C31.2703 40.0641 32.0688 39.2656 32.2547 38.5766C32.5719 37.4719 32.1453 36.1484 31.2266 35.3609C30.275 34.5516 27.0703 32.6812 24.6859 31.5547L23.1 30.8109L23.6797 29.925C25.1563 27.6609 25.8781 25.889 25.7797 24.7734C25.6922 23.625 25.1672 22.9797 23.7344 22.2031C22.6625 21.6234 22.4547 21.4156 22.6078 21.0765C22.6734 20.9453 23.1875 20.3219 23.7563 19.6765C24.325 19.0422 24.9484 18.2875 25.1563 17.9922C26.5016 16.0453 26.0969 13.8359 24.2375 13.0047L23.7891 12.8078V12.0094C23.7781 11.5609 23.6906 10.9594 23.5813 10.6312C23.4719 10.314 23.4063 10.0297 23.4281 10.0078C23.5047 9.93124 25.1016 9.61405 25.9 9.51561C26.9719 9.37342 29.9797 9.47186 31.1172 9.66874ZM23.4063 15.039C23.6906 15.1922 23.7344 15.2687 23.7344 15.6734C23.7344 16.2859 23.4172 16.7781 22.05 18.3094C20.6063 19.939 20.3984 20.3 20.3984 21.2734C20.4094 22.4547 20.9016 23.1437 22.2359 23.8437C22.6078 24.0406 23.0781 24.325 23.2859 24.4781C23.6141 24.7187 23.6469 24.7844 23.5922 25.1781C23.5266 25.6922 22.9469 26.9391 22.1922 28.1859L21.6234 29.1156L21.1859 28.3172C19.6109 25.4078 18.1125 23.1875 16.8 21.7875L15.925 20.8687L16.3078 20.5844C16.975 20.0594 17.8609 19.2281 19.25 17.8172C20.0484 17.0078 20.9344 16.2312 21.3828 15.9359C21.8094 15.6734 22.2688 15.3234 22.4109 15.1594C22.7172 14.8312 22.9578 14.8094 23.4063 15.039ZM42.6781 16.5922C44.4281 18.8234 45.6859 21.6344 46.2875 24.6312C46.6594 26.5344 46.6156 30.3953 46.2 31.7625C46.1453 31.9156 46.0688 31.8391 45.8063 31.3797C45.0078 29.9906 43.7609 29.2141 41.3328 28.6125C39.6484 28.1859 39.2984 28.0437 38.8938 27.5625C38.4563 27.0375 38.4672 26.5234 38.9484 24.8281C39.3969 23.275 39.4078 22.2578 39.0031 21.3719C38.3469 19.9281 37.3078 19.3594 34.7266 19.0312C32.8234 18.7906 32.375 18.6265 32.375 18.1562C32.375 17.5984 33.5453 16.8328 35 16.4609C36.4328 16.0891 37.3625 15.9906 39.7688 15.9797L42.1859 15.9687L42.6781 16.5922ZM15.0938 23.1656C16.4719 24.5765 17.8938 26.7422 19.4688 29.8047C20.2891 31.4016 20.3 31.4562 20.2234 31.9922C20.1797 32.2875 20.1031 33.3266 20.0594 34.2891C19.9828 36.2469 20.1359 37.5594 20.5953 38.6969C21.0656 39.8453 22.7828 42.5359 24.8063 45.2812C25.6922 46.4844 25.6813 46.4953 24.2594 46.2109C17.2266 44.7781 11.4734 39.1562 9.89844 32.1891C9.38438 29.925 9.28594 27.2781 9.625 25.1562C9.8 24.0734 9.76719 24.1172 10.8609 23.6906C11.4188 23.4719 12.3375 23.0562 12.9063 22.7609C13.475 22.4656 14 22.2141 14.0547 22.2141C14.1203 22.2031 14.5797 22.6297 15.0938 23.1656ZM24.4453 33.8844C26.1297 34.7156 28.0547 35.8203 29.5422 36.8266C29.9469 37.0891 30.1875 37.4719 30.1875 37.8437C30.1875 38.0734 29.8813 38.3141 28.9188 38.8172C28.0438 39.2766 27.3766 39.9328 27.0594 40.6219C26.7969 41.2016 26.5781 42.4922 26.5781 43.4437V43.9906L26.0641 43.3016C25.0031 41.8578 23.2641 39.1891 22.8594 38.3359C22.3672 37.3406 22.2031 36.5203 22.2031 35.0547C22.2031 33.9719 22.3016 32.9219 22.4109 32.9219C22.4438 32.9219 23.3625 33.3594 24.4453 33.8844Z" fill="#00A4FF"/>
</svg>
