<svg width="31" height="30" viewBox="0 0 31 30" fill="none" xmlns="http://www.w3.org/2000/svg">
<mask id="path-1-inside-1_834_11597" fill="white">
<path d="M30.1526 15.2507C30.1937 15.6462 30.2143 16.0599 30.2143 16.4965C30.2143 19.461 29.1811 21.4542 28.18 22.7022C27.7758 23.2089 27.3132 23.6662 26.8017 24.0645C26.6288 24.1977 26.4487 24.3213 26.2623 24.4347L26.2417 24.4462C26.0605 24.5443 25.9092 24.6895 25.8038 24.8665C25.6983 25.0436 25.6427 25.2458 25.6429 25.4519V28.4576C25.6429 28.7607 25.5225 29.0514 25.3081 29.2657C25.0938 29.48 24.8031 29.6005 24.5 29.6005H23.3571C23.3571 28.9942 23.1163 28.4129 22.6877 27.9842C22.259 27.5556 21.6776 27.3147 21.0714 27.3147H16.5C15.8938 27.3147 15.3124 27.5556 14.8838 27.9842C14.4551 28.4129 14.2143 28.9942 14.2143 29.6005H13.0714C12.7683 29.6005 12.4776 29.48 12.2633 29.2657C12.049 29.0514 11.9286 28.7607 11.9286 28.4576V27.0793C11.9289 26.7958 11.8238 26.5223 11.6337 26.3119C11.4436 26.1016 11.1821 25.9694 10.9 25.941C10.5378 25.8624 10.183 25.753 9.83943 25.6142C8.92801 25.2464 8.10124 24.6965 7.40971 23.9982C6.39714 22.9696 5.77771 21.6165 5.444 20.677C5.11714 19.7422 4.36743 18.8965 3.29543 18.5947C3.14873 18.553 3.01963 18.4646 2.92765 18.343C2.83568 18.2213 2.78586 18.073 2.78571 17.9205V16.1056C2.78559 15.9616 2.83237 15.8215 2.91897 15.7064C3.00557 15.5913 3.12729 15.5076 3.26571 15.4679C4.37429 15.1502 5.11486 14.2542 5.428 13.3079C5.684 12.5307 6.13657 11.5342 6.87257 10.7867C7.71574 9.94496 8.68993 9.24558 9.75714 8.71588C9.84629 8.67017 9.91714 8.63817 9.96286 8.6176L10.0086 8.59474L10.0177 8.59245C10.2234 8.50427 10.3987 8.35762 10.5218 8.17071C10.645 7.9838 10.7105 7.76484 10.7103 7.54103V3.71474C11.2187 4.14837 11.753 4.55064 12.3103 4.91931C13.0349 5.39474 13.8806 5.84503 14.7651 6.08503C15.0257 5.33531 15.3823 4.62217 15.8257 3.96388H15.812C15.1743 3.8976 14.3949 3.55245 13.5606 3.00617C12.796 2.49216 12.0772 1.91326 11.412 1.27588C11.1634 1.04273 10.8528 0.886345 10.5175 0.825522C10.1821 0.764699 9.83634 0.802029 9.52172 0.933026C9.19899 1.06092 8.92199 1.28257 8.72643 1.56938C8.53087 1.8562 8.42573 2.19503 8.42457 2.54217V6.83246C7.25917 7.46062 6.18935 8.25183 5.24743 9.18217C4.15714 10.2839 3.56514 11.6599 3.25886 12.5902C3.13086 12.9719 2.87486 13.2027 2.63714 13.269C2.02144 13.4453 1.47986 13.8172 1.09428 14.3285C0.708702 14.8399 0.500095 15.4629 0.5 16.1033V17.9205C0.5 19.2576 1.38914 20.4302 2.67371 20.7936C2.81989 20.8445 2.95198 20.9292 3.05922 21.0408C3.16646 21.1524 3.24583 21.2878 3.29086 21.4359C3.67029 22.5147 4.42914 24.2313 5.78229 25.6027C6.85952 26.6916 8.18398 27.504 9.64286 27.9707V28.4576C9.64286 29.3669 10.0041 30.239 10.6471 30.882C11.29 31.5249 12.1621 31.8862 13.0714 31.8862H14.2143C14.8205 31.8862 15.4019 31.6454 15.8305 31.2167C16.2592 30.788 16.5 30.2067 16.5 29.6005H21.0714C21.0714 30.2067 21.3122 30.788 21.7409 31.2167C22.1696 31.6454 22.7509 31.8862 23.3571 31.8862H24.5C25.4093 31.8862 26.2814 31.5249 26.9244 30.882C27.5674 30.239 27.9286 29.3669 27.9286 28.4576V26.0736C28.6905 25.5198 29.3746 24.8664 29.9629 24.1307C31.2474 22.5307 32.5 20.0439 32.5 16.4965C32.5 15.0107 32.2897 13.6805 31.8829 12.4919C31.4754 13.5074 30.8894 14.4418 30.1526 15.2507ZM29.7366 6.4576C30.3079 7.83645 30.414 9.36404 30.0386 10.8086C29.6632 12.2532 28.8269 13.5359 27.6566 14.4622C26.7034 15.2142 25.3983 15.157 24.2783 14.6907L18.8154 12.4302C17.6954 11.9662 16.7309 11.0839 16.5891 9.87931C16.3994 8.23636 16.8096 6.58015 17.7442 5.21569C18.6789 3.85124 20.075 2.87042 21.6756 2.45386C23.2762 2.0373 24.9733 2.21306 26.4546 2.94876C27.9358 3.68446 29.1014 4.93057 29.7366 6.4576ZM26.2394 12.6679C26.865 12.1735 27.3505 11.5242 27.6478 10.7844C27.945 10.0445 28.0437 9.23978 27.934 8.45002C27.8243 7.66026 27.51 6.9129 27.0223 6.28206C26.5347 5.65123 25.8906 5.15884 25.1539 4.85372C24.4173 4.54861 23.6137 4.44138 22.8228 4.54266C22.0319 4.64394 21.2812 4.95021 20.6452 5.43111C20.0092 5.91201 19.51 6.55081 19.1971 7.28417C18.8841 8.01753 18.7683 8.81997 18.8611 9.61188C18.8657 9.6576 18.884 9.74217 19.012 9.87703C19.2056 10.0691 19.4367 10.2192 19.6909 10.3182L25.1537 12.581C25.4032 12.6924 25.6736 12.7493 25.9469 12.7479C26.1297 12.7433 26.2051 12.6953 26.2394 12.6679ZM11.3571 14.7433C11.8118 14.7433 12.2478 14.5627 12.5693 14.2412C12.8908 13.9197 13.0714 13.4837 13.0714 13.029C13.0714 12.5744 12.8908 12.1383 12.5693 11.8168C12.2478 11.4954 11.8118 11.3147 11.3571 11.3147C10.9025 11.3147 10.4665 11.4954 10.145 11.8168C9.82347 12.1383 9.64286 12.5744 9.64286 13.029C9.64286 13.4837 9.82347 13.9197 10.145 14.2412C10.4665 14.5627 10.9025 14.7433 11.3571 14.7433Z"/>
</mask>
<path d="M30.1526 15.2507C30.1937 15.6462 30.2143 16.0599 30.2143 16.4965C30.2143 19.461 29.1811 21.4542 28.18 22.7022C27.7758 23.2089 27.3132 23.6662 26.8017 24.0645C26.6288 24.1977 26.4487 24.3213 26.2623 24.4347L26.2417 24.4462C26.0605 24.5443 25.9092 24.6895 25.8038 24.8665C25.6983 25.0436 25.6427 25.2458 25.6429 25.4519V28.4576C25.6429 28.7607 25.5225 29.0514 25.3081 29.2657C25.0938 29.48 24.8031 29.6005 24.5 29.6005H23.3571C23.3571 28.9942 23.1163 28.4129 22.6877 27.9842C22.259 27.5556 21.6776 27.3147 21.0714 27.3147H16.5C15.8938 27.3147 15.3124 27.5556 14.8838 27.9842C14.4551 28.4129 14.2143 28.9942 14.2143 29.6005H13.0714C12.7683 29.6005 12.4776 29.48 12.2633 29.2657C12.049 29.0514 11.9286 28.7607 11.9286 28.4576V27.0793C11.9289 26.7958 11.8238 26.5223 11.6337 26.3119C11.4436 26.1016 11.1821 25.9694 10.9 25.941C10.5378 25.8624 10.183 25.753 9.83943 25.6142C8.92801 25.2464 8.10124 24.6965 7.40971 23.9982C6.39714 22.9696 5.77771 21.6165 5.444 20.677C5.11714 19.7422 4.36743 18.8965 3.29543 18.5947C3.14873 18.553 3.01963 18.4646 2.92765 18.343C2.83568 18.2213 2.78586 18.073 2.78571 17.9205V16.1056C2.78559 15.9616 2.83237 15.8215 2.91897 15.7064C3.00557 15.5913 3.12729 15.5076 3.26571 15.4679C4.37429 15.1502 5.11486 14.2542 5.428 13.3079C5.684 12.5307 6.13657 11.5342 6.87257 10.7867C7.71574 9.94496 8.68993 9.24558 9.75714 8.71588C9.84629 8.67017 9.91714 8.63817 9.96286 8.6176L10.0086 8.59474L10.0177 8.59245C10.2234 8.50427 10.3987 8.35762 10.5218 8.17071C10.645 7.9838 10.7105 7.76484 10.7103 7.54103V3.71474C11.2187 4.14837 11.753 4.55064 12.3103 4.91931C13.0349 5.39474 13.8806 5.84503 14.7651 6.08503C15.0257 5.33531 15.3823 4.62217 15.8257 3.96388H15.812C15.1743 3.8976 14.3949 3.55245 13.5606 3.00617C12.796 2.49216 12.0772 1.91326 11.412 1.27588C11.1634 1.04273 10.8528 0.886345 10.5175 0.825522C10.1821 0.764699 9.83634 0.802029 9.52172 0.933026C9.19899 1.06092 8.92199 1.28257 8.72643 1.56938C8.53087 1.8562 8.42573 2.19503 8.42457 2.54217V6.83246C7.25917 7.46062 6.18935 8.25183 5.24743 9.18217C4.15714 10.2839 3.56514 11.6599 3.25886 12.5902C3.13086 12.9719 2.87486 13.2027 2.63714 13.269C2.02144 13.4453 1.47986 13.8172 1.09428 14.3285C0.708702 14.8399 0.500095 15.4629 0.5 16.1033V17.9205C0.5 19.2576 1.38914 20.4302 2.67371 20.7936C2.81989 20.8445 2.95198 20.9292 3.05922 21.0408C3.16646 21.1524 3.24583 21.2878 3.29086 21.4359C3.67029 22.5147 4.42914 24.2313 5.78229 25.6027C6.85952 26.6916 8.18398 27.504 9.64286 27.9707V28.4576C9.64286 29.3669 10.0041 30.239 10.6471 30.882C11.29 31.5249 12.1621 31.8862 13.0714 31.8862H14.2143C14.8205 31.8862 15.4019 31.6454 15.8305 31.2167C16.2592 30.788 16.5 30.2067 16.5 29.6005H21.0714C21.0714 30.2067 21.3122 30.788 21.7409 31.2167C22.1696 31.6454 22.7509 31.8862 23.3571 31.8862H24.5C25.4093 31.8862 26.2814 31.5249 26.9244 30.882C27.5674 30.239 27.9286 29.3669 27.9286 28.4576V26.0736C28.6905 25.5198 29.3746 24.8664 29.9629 24.1307C31.2474 22.5307 32.5 20.0439 32.5 16.4965C32.5 15.0107 32.2897 13.6805 31.8829 12.4919C31.4754 13.5074 30.8894 14.4418 30.1526 15.2507ZM29.7366 6.4576C30.3079 7.83645 30.414 9.36404 30.0386 10.8086C29.6632 12.2532 28.8269 13.5359 27.6566 14.4622C26.7034 15.2142 25.3983 15.157 24.2783 14.6907L18.8154 12.4302C17.6954 11.9662 16.7309 11.0839 16.5891 9.87931C16.3994 8.23636 16.8096 6.58015 17.7442 5.21569C18.6789 3.85124 20.075 2.87042 21.6756 2.45386C23.2762 2.0373 24.9733 2.21306 26.4546 2.94876C27.9358 3.68446 29.1014 4.93057 29.7366 6.4576ZM26.2394 12.6679C26.865 12.1735 27.3505 11.5242 27.6478 10.7844C27.945 10.0445 28.0437 9.23978 27.934 8.45002C27.8243 7.66026 27.51 6.9129 27.0223 6.28206C26.5347 5.65123 25.8906 5.15884 25.1539 4.85372C24.4173 4.54861 23.6137 4.44138 22.8228 4.54266C22.0319 4.64394 21.2812 4.95021 20.6452 5.43111C20.0092 5.91201 19.51 6.55081 19.1971 7.28417C18.8841 8.01753 18.7683 8.81997 18.8611 9.61188C18.8657 9.6576 18.884 9.74217 19.012 9.87703C19.2056 10.0691 19.4367 10.2192 19.6909 10.3182L25.1537 12.581C25.4032 12.6924 25.6736 12.7493 25.9469 12.7479C26.1297 12.7433 26.2051 12.6953 26.2394 12.6679ZM11.3571 14.7433C11.8118 14.7433 12.2478 14.5627 12.5693 14.2412C12.8908 13.9197 13.0714 13.4837 13.0714 13.029C13.0714 12.5744 12.8908 12.1383 12.5693 11.8168C12.2478 11.4954 11.8118 11.3147 11.3571 11.3147C10.9025 11.3147 10.4665 11.4954 10.145 11.8168C9.82347 12.1383 9.64286 12.5744 9.64286 13.029C9.64286 13.4837 9.82347 13.9197 10.145 14.2412C10.4665 14.5627 10.9025 14.7433 11.3571 14.7433Z" fill="#FCFCFC" stroke="#FCFCFC" stroke-width="10" mask="url(#path-1-inside-1_834_11597)"/>
</svg>
