<svg width="56" height="56" viewBox="0 0 56 56" fill="none" xmlns="http://www.w3.org/2000/svg">
<path d="M26.2492 0.0656242C24.3789 0.295315 23.8648 0.371876 22.9132 0.568752C19.8179 1.19219 16.2085 2.86563 13.671 4.84531C12.7085 5.6 10.8382 7.42656 10.0726 8.36719C5.50073 13.9562 3.64135 21.4156 5.0851 28.3609C6.17885 33.6656 9.33979 38.675 13.6273 41.9344L14.6226 42.6891L14.4148 43.0391C14.2179 43.3781 14.2179 43.6625 14.2398 49.3828L14.2726 55.3656L14.6335 55.6828L14.9835 56H18.1007H21.2179L21.557 55.6937C21.8414 55.4422 21.907 55.2781 21.9617 54.8078L22.0164 54.2281L22.957 54.2719C23.8648 54.3047 23.9414 54.3266 24.6085 54.7641C26.2601 55.8359 26.7085 55.9125 30.8976 55.8688L34.1789 55.8359L34.9007 55.4859C35.7648 55.0594 36.5414 54.2719 36.9242 53.4406C37.2851 52.6422 38.1054 46.8453 38.0289 45.5547L37.9742 44.6687L38.9148 44.1875C41.7257 42.7109 44.4382 40.5016 46.3632 38.1063C51.9414 31.2047 52.9585 21.5031 49.0101 13.1797C45.6523 6.125 39.3414 1.47656 31.4992 0.284374C30.3835 0.109375 27.0148 -0.0328102 26.2492 0.0656242ZM30.4929 2.30781C36.9789 3.01875 42.7101 6.78125 46.1773 12.6C49.371 17.9703 50.1367 24.3687 48.2773 30.0672C46.9976 33.9828 44.1867 37.8766 40.8289 40.4031C39.8007 41.1797 37.8539 42.3609 37.1976 42.6234C36.771 42.7875 36.7601 42.7875 36.246 42.4375C35.3492 41.8141 34.682 41.6719 32.582 41.6719C31.4445 41.6719 30.7335 41.6281 30.7335 41.5625C30.7335 41.5078 30.8429 41.4313 30.9851 41.4094C34.2226 40.7531 35.8304 40.1297 38.1273 38.5984C39.582 37.625 41.6054 35.6453 42.6882 34.125C44.0992 32.1344 45.2804 29.3891 45.8492 26.7969C46.1773 25.2437 46.2101 21.3828 45.9039 19.8734C45.4226 17.5 44.3617 15.0391 43.0054 13.125C41.6601 11.2328 39.5273 9.19844 37.6132 8.00625C35.9179 6.93438 33.1179 5.81875 32.4945 5.96094C32.0242 6.05938 31.7179 6.49688 31.7179 7.05469C31.7179 7.64531 31.9914 7.90781 32.9867 8.24688C34.8898 8.89219 36.3445 9.67969 37.8976 10.8937C40.8726 13.2125 42.907 16.4391 43.7054 20.1359C44.0226 21.5797 44.0007 25.0359 43.6617 26.5672C42.546 31.5438 39.4398 35.6672 35.1851 37.8C34.4304 38.1828 32.3304 38.9375 32.0132 38.9375C31.8929 38.9375 31.8382 38.7625 31.8054 38.1938C31.7179 36.6187 30.8757 35.5578 28.9726 34.5844C27.7914 33.9937 27.332 33.9062 26.9492 34.1688C26.8289 34.2563 26.0742 35.3609 25.2757 36.6297L23.832 38.9266L23.0992 38.675C18.7789 37.1984 15.4976 34.3547 13.671 30.4828C12.0085 26.9609 11.6257 23.1547 12.5773 19.4141C13.9007 14.1641 17.7179 10.0625 22.9679 8.26875C23.9414 7.94062 24.2804 7.6125 24.2804 7.02188C24.2804 6.49688 24.0507 6.17969 23.5804 6.01562C23.2523 5.90625 23.0664 5.93906 22.1804 6.23438C18.4617 7.48125 15.1039 10.0406 12.9492 13.2453C9.00073 19.1406 8.85854 27.0047 12.5992 33.1187C13.9445 35.3172 16.0882 37.4719 18.3195 38.8281C19.2382 39.3969 21.2726 40.3703 22.071 40.6328C22.4429 40.7531 22.6179 40.8625 22.5632 40.9391C22.082 41.7703 21.6226 42.3172 21.3164 42.4266C21.1195 42.4922 20.4414 42.5469 19.807 42.5469H18.6367L17.6304 41.9672C14.8523 40.3813 12.7742 38.5547 10.7398 35.9188C10.0398 35.0109 8.96792 33.0859 8.42104 31.7625C7.16323 28.6781 6.60542 25.1562 6.87885 21.9844C7.90698 10.4781 16.6679 2.29688 28.0867 2.19844C28.8195 2.1875 29.9023 2.24219 30.4929 2.30781ZM28.6007 36.8813C29.4101 37.4172 29.6726 37.8656 29.607 38.6094C29.5742 39.0906 29.432 39.4406 28.896 40.4141C28.1195 41.7922 28.021 42.3391 28.4695 42.9844C29.0164 43.7937 29.0382 43.7937 31.9148 43.8594C34.3976 43.9141 34.5289 43.925 34.9226 44.1656C35.4695 44.5156 35.8742 45.2156 35.8742 45.8391C35.8742 46.4516 35.1304 51.8984 34.9882 52.3578C34.8242 52.8609 34.496 53.2438 33.9929 53.4953C33.5882 53.7031 33.4023 53.7141 30.3179 53.6813C26.7195 53.6484 26.8945 53.6813 25.6257 52.8063C24.9148 52.325 24.3351 52.1609 23.1101 52.0953L21.9835 52.0297V48.2891V44.5594L22.4101 44.3734C23.0992 44.0672 23.5585 43.4547 25.8117 39.8891C26.971 38.0406 27.9554 36.5312 27.9882 36.5312C28.032 36.5312 28.3054 36.6953 28.6007 36.8813ZM19.796 49.2734V53.8125H18.1007H16.4054V49.2734V44.7344H18.1007H19.796V49.2734Z" fill="#00A4FF"/>
<path d="M27.3219 5.56698C27.0266 5.82948 26.9609 5.96073 26.9609 6.34354C26.9609 6.72635 27.0266 6.8576 27.3219 7.1201C27.7156 7.4701 28.0766 7.51385 28.5469 7.27323C29.2141 6.92323 29.2906 6.19042 28.7219 5.62167C28.2406 5.14042 27.8141 5.12948 27.3219 5.56698Z" fill="#00A4FF"/>
<path d="M27.4732 11.7797C27.3967 11.8125 26.5217 13.0484 25.5264 14.5359L23.7326 17.2266L20.692 18.0688C17.9795 18.8344 17.6295 18.9547 17.367 19.25C16.9951 19.6547 16.9732 20.0813 17.3123 20.5734C17.4545 20.7813 18.3623 21.9516 19.3357 23.1766L21.0967 25.3969L21.042 26.5672C20.8451 30.3844 20.8232 31.5656 20.9545 31.8938C21.1076 32.3094 21.4904 32.5938 21.8842 32.5938C22.0373 32.5938 23.492 32.1016 25.0998 31.5L28.0201 30.4172L30.9514 31.5C32.5592 32.1016 34.0139 32.5938 34.1779 32.5938C34.3748 32.5938 34.6045 32.4625 34.856 32.2109L35.2498 31.8172L35.1732 30.6469C35.1404 30.0016 35.0857 28.5359 35.042 27.3984L34.9764 25.3203L36.1576 23.8438C38.8373 20.4969 38.9357 20.3547 38.9357 19.95C38.9357 19.4797 38.7935 19.1844 38.4654 19.0094C38.3342 18.9438 36.9014 18.5063 35.2717 18.0578L32.3185 17.2266L30.6014 14.6563C29.6498 13.2453 28.7748 11.9984 28.6435 11.8891C28.4248 11.7141 27.7904 11.6484 27.4732 11.7797ZM31.0826 19.0969C31.2248 19.1625 32.3404 19.5016 33.5764 19.8516C34.8123 20.1906 35.8514 20.4969 35.8951 20.5188C35.9389 20.5516 35.2717 21.4594 34.3967 22.5531C33.5326 23.6359 32.8107 24.6313 32.7889 24.7625C32.767 24.8938 32.7889 26.0641 32.8435 27.3766C32.8982 28.6891 32.9201 29.7828 32.8873 29.8156C32.8654 29.8375 31.8373 29.4875 30.6123 29.0391C29.3873 28.5797 28.2389 28.1969 28.0529 28.1859C27.8779 28.1859 26.7076 28.5688 25.4498 29.0391C24.2029 29.5094 23.1529 29.8703 23.131 29.8375C23.0982 29.8047 23.131 28.6891 23.1857 27.3547C23.2514 26.0203 23.2732 24.8281 23.2404 24.7078C23.1967 24.5875 22.5076 23.6469 21.6873 22.6188C20.8779 21.5906 20.1889 20.6938 20.167 20.6281C20.1342 20.5406 20.9217 20.2781 22.442 19.8625C23.7217 19.5125 24.8592 19.1734 24.9685 19.1188C25.067 19.0641 25.7998 18.0578 26.5873 16.8766L28.0201 14.7438L29.431 16.8547C30.1967 18.0141 30.9514 19.0203 31.0826 19.0969Z" fill="#00A4FF"/>
</svg>
