<svg width="48" height="48" viewBox="0 0 48 48" fill="none" xmlns="http://www.w3.org/2000/svg">
<g clip-path="url(#clip0_436_10568)">
<path fill-rule="evenodd" clip-rule="evenodd" d="M0 0H47.4286V48H0V0Z" fill="#D94F00"/>
<path fill-rule="evenodd" clip-rule="evenodd" d="M26.9842 9.30762H39.1426V21.4905H26.9842V9.30762ZM12.2854 27.6529V28.8448H14.3809V35.1501H15.8258V28.7966H17.7768V27.6048L12.2854 27.6537V27.6529ZM11.2062 29.1305V27.9386C10.047 27.4146 8.71398 27.2562 7.34909 27.9386C5.11072 28.9395 5.03072 33.8954 7.2699 34.8644C8.55562 35.5158 11.2373 35.2137 11.5075 34.6415V30.7182H8.84133V31.7509H10.0152V33.8162C6.15807 35.6905 5.44378 26.6839 11.2062 29.1305ZM20.127 31.6872H21.5075C22.6503 31.7354 22.9524 33.8954 21.4601 33.879H20.127V31.6872ZM20.127 28.6537H21.5075C22.6503 28.8603 22.2381 30.5599 21.4601 30.6072H20.127V28.6537ZM18.6985 27.4946V35.0864H22.4919C24.4283 34.3876 24.5083 31.386 22.4919 31.0676C24.3491 30.8619 24.4446 27.4464 21.2381 27.4464L18.6985 27.4946ZM25.3964 29.6227V30.7501C26.4119 30.4644 28.6185 29.6701 28.4119 31.3541C26.4756 31.2268 25.1581 31.5762 24.936 32.7827C24.5711 35.3884 27.3646 35.6423 28.5393 34.3558V34.9754H29.8724V30.4007C29.5393 28.9231 27.3336 28.7329 25.3964 29.6227ZM26.523 32.5615C26.825 32.1639 27.7932 32.1795 28.4438 32.3705V33.3713C27.3809 34.5141 25.6666 33.9909 26.5238 32.5607L26.523 32.5615ZM32.6348 30.9729C32.9842 30.5917 34.8413 29.8766 35.127 30.9729V35.0072H36.6185V30.7346C36.3009 28.955 34.6021 28.6374 32.5393 29.8448V29.1778H31.127V35.039H32.6185L32.6348 30.9729ZM41.3009 29.1141L39.3491 31.7346L41.4128 34.959L43.2062 34.9117L40.9368 31.8146L42.9842 29.1615L41.3017 29.1141H41.3009ZM37.7303 27.1917H39.2062V34.959H37.7295V27.1925L37.7303 27.1917Z" fill="#04111D"/>
<path fill-rule="evenodd" clip-rule="evenodd" d="M26.9844 9.30762H39.1427V21.4905H26.9844V9.30762Z" fill="#04111D"/>
</g>
<defs>
<clipPath id="clip0_436_10568">
<rect width="47.4286" height="48" fill="white"/>
</clipPath>
</defs>
</svg>
