<svg width="28" height="28" viewBox="0 0 28 28" fill="none" xmlns="http://www.w3.org/2000/svg">
<path d="M8.81562 0.109375C8.70078 0.229687 8.36719 1.37812 8.36719 1.64062C8.36719 2.06719 8.96875 2.15469 9.12734 1.75547C9.20937 1.55312 9.51562 0.432031 9.51562 0.344531C9.51562 0.300781 9.45547 0.207812 9.37891 0.136718C9.21484 -0.0328131 8.95781 -0.0437505 8.81562 0.109375Z" fill="#00A4FF"/>
<path d="M3.74609 0.738312C3.66953 0.809406 3.60938 0.92425 3.60938 0.995344C3.60938 1.143 4.23281 2.28597 4.38594 2.41722C4.53359 2.54847 4.70859 2.543 4.88906 2.40081C4.98203 2.32425 5.03125 2.23675 5.03125 2.12737C5.03125 1.94691 4.43516 0.847687 4.25469 0.694562C4.10156 0.563312 3.89922 0.579719 3.74609 0.738312Z" fill="#00A4FF"/>
<path d="M20.218 2.08906C20.1031 2.18203 20.0977 2.19843 19.2281 4.61562C18.818 5.74765 18.4844 6.7375 18.4844 6.80859C18.4844 6.87969 18.5445 7.01094 18.6156 7.09297L18.7469 7.24609L20.3656 7.2625L21.9844 7.2789V8.36719C21.9844 8.96875 21.9734 9.46094 21.957 9.46094C21.9461 9.46094 21.3883 9.12734 20.7266 8.72265C20.0648 8.31797 19.4633 7.98437 19.3977 7.98437C19.1188 7.98437 18.8945 8.33437 19.0258 8.575C19.0531 8.62969 20.5789 9.59219 22.4164 10.7133C24.4563 11.9602 25.7852 12.8023 25.8398 12.8898C26.1023 13.2836 25.9219 13.8195 25.4625 14.0492C25.2055 14.175 25.1836 14.1805 24.9703 14.1039C24.7789 14.0328 20.5242 11.457 15.6953 8.48203C14.957 8.02812 14.3063 7.65625 14.2406 7.65625C14.1805 7.65625 13.1578 8.25234 11.9711 8.98516C7.46485 11.7633 3.74063 14.0219 3.54922 14.0875C3.19922 14.2133 2.81094 14.0383 2.625 13.6719C2.48828 13.4039 2.48828 13.1469 2.61953 12.9336C2.69063 12.8078 3.42891 12.332 5.39219 11.1344C6.86328 10.232 9.41719 8.67344 11.0688 7.66172C13.3438 6.27266 14.1148 5.82969 14.2461 5.82969C14.3719 5.82969 14.7602 6.0375 15.7008 6.61719C16.5211 7.11484 17.0352 7.39922 17.1281 7.39922C17.4289 7.39922 17.6367 7.04922 17.4781 6.80859C17.4016 6.69375 15.3672 5.41406 14.8203 5.14062C14.6508 5.05312 14.4813 5.01484 14.2461 5.01484C13.8414 5.01484 13.7594 5.05859 12.25 5.98281L11.1289 6.6664L11.0961 6.51875C11.0797 6.43672 11.0305 6.2125 10.9977 6.01562C10.9594 5.81875 10.8172 5.425 10.6805 5.14062C10.2211 4.17812 9.28047 3.41797 8.20313 3.13359C7.72735 3.00781 6.81953 3.01328 6.34375 3.13906C4.65938 3.59297 3.5 5.08594 3.5 6.80859C3.5 8.03359 4.08516 9.17656 5.06953 9.88203C5.26094 10.0187 5.40313 10.15 5.37578 10.1719C5.35391 10.1937 4.65391 10.6203 3.82813 11.1234C2.14922 12.1406 1.91953 12.332 1.77188 12.8406C1.60782 13.3984 1.76094 13.9508 2.21485 14.432C2.56485 14.8094 2.88203 14.9516 3.34688 14.9516C3.66407 14.9516 3.76797 14.9242 4.10157 14.7492L4.48438 14.5523V21.0492C4.48438 25.6539 4.50078 27.5953 4.54453 27.7211C4.57735 27.8141 4.64844 27.918 4.70313 27.9453C4.76875 27.9781 8.19219 28 14.257 28C24.4672 27.9945 23.8328 28.0164 23.9531 27.7047C23.9914 27.6062 24.0078 25.4187 24.0078 21.0547V14.5523L24.3906 14.7492C24.7297 14.9242 24.8281 14.9516 25.1453 14.9516C25.6211 14.9461 25.9438 14.793 26.2992 14.4047C26.9172 13.732 26.9227 12.7312 26.3102 12.1844C26.2008 12.0859 25.3695 11.55 24.4563 10.9977L22.8047 9.99141V8.63515V7.2789L24.2539 7.2625C25.6266 7.24609 25.7086 7.24062 25.8125 7.13125C25.8781 7.06562 26.2609 6.09219 26.7477 4.73594C27.5023 2.63593 27.5625 2.43359 27.5023 2.28594C27.4695 2.19843 27.393 2.10547 27.3383 2.07812C27.1797 1.99062 20.3328 2.00703 20.218 2.08906ZM21.8695 3.45625C21.7492 3.79531 21.4648 4.60469 21.2297 5.25L20.8086 6.42578L20.1359 6.44219C19.7695 6.44765 19.4688 6.43672 19.4688 6.40937C19.4688 6.36562 20.3711 3.82812 20.6555 3.07344L20.743 2.84375H21.4156H22.0938L21.8695 3.45625ZM24.2211 3.12812C24.1664 3.28672 23.8711 4.09609 23.5758 4.92187L23.0344 6.42578L22.3727 6.44219C21.8914 6.45312 21.7109 6.43672 21.7109 6.39297C21.7109 6.34375 22.5203 4.05781 22.9195 2.96406C22.9633 2.84922 22.9906 2.84375 23.6469 2.84375H24.3305L24.2211 3.12812ZM26.5234 2.8875C26.5234 2.93125 25.6156 5.48516 25.3367 6.21797L25.2492 6.45312H24.6039C24.0789 6.45312 23.9531 6.43672 23.9531 6.37656C23.9531 6.30547 25.1344 2.98047 25.1891 2.8875C25.2273 2.82734 26.5234 2.83281 26.5234 2.8875ZM7.83672 3.90469C9.01797 4.13437 9.95313 5.04766 10.1992 6.20703C10.2977 6.67734 10.3031 7.06015 10.2156 7.18047C10.1773 7.22969 9.275 7.79844 8.21407 8.44922L6.2836 9.625L5.88985 9.42266C4.10703 8.4875 3.77891 6.07031 5.24453 4.65937C5.74766 4.17812 6.49141 3.87187 7.25703 3.83359C7.35 3.83359 7.6125 3.86094 7.83672 3.90469ZM16.718 10.0844C18.0633 10.9102 20.0648 12.1352 21.1641 12.8133L23.1602 14.0437L23.1766 20.6117L23.1875 27.1797H14.2461H5.30469V20.6227V14.0656L8.05547 12.3703C12.2172 9.80547 14.1859 8.59687 14.2297 8.59141C14.2461 8.58594 15.3672 9.25859 16.718 10.0844Z" fill="#00A4FF"/>
<path d="M13.3164 12.2719C13.2891 12.2883 13.1961 12.3102 13.1141 12.3266C12.95 12.3649 12.6109 12.6383 12.507 12.8188C12.4742 12.8789 12.4305 13.2016 12.4141 13.5352L12.3867 14.1367L11.9492 14.1695C11.2656 14.2133 10.7953 14.5141 10.5164 15.0828L10.3633 15.3945V19.4688V23.543L10.5492 23.8875C10.7844 24.3195 11.1781 24.6367 11.5938 24.7352C11.6703 24.7516 12.0695 24.7735 12.4906 24.7789C13.2344 24.7953 13.2508 24.7899 13.3547 24.6641C13.4805 24.5055 13.4586 24.2211 13.3109 24.057C13.2289 23.9641 13.1305 23.9531 12.507 23.9531C11.6648 23.9531 11.4516 23.8711 11.2656 23.4828C11.1672 23.2805 11.1562 23.1656 11.1672 22.3891L11.1836 21.5195H14.2461H17.3086V22.4602C17.3086 23.5047 17.2922 23.5649 16.8984 23.8274C16.7289 23.9422 16.6578 23.9531 15.9086 23.9531C15.1648 23.9531 15.0828 23.9641 14.9844 24.0625C14.8312 24.2156 14.8203 24.5711 14.957 24.7133C15.0828 24.8391 16.7125 24.8008 17.0844 24.6586C17.4453 24.5274 17.8008 24.1828 17.9867 23.7945L18.1289 23.4883V19.4414V15.3945L18.0086 15.1485C17.6969 14.5195 17.243 14.2133 16.543 14.1641L16.1055 14.1367L16.0781 13.5352C16.0453 12.9008 16.018 12.8024 15.7664 12.5727C15.4711 12.2938 15.4 12.2774 14.3555 12.2664C13.8141 12.261 13.3492 12.261 13.3164 12.2719ZM15.1539 13.125C15.2469 13.1742 15.2578 13.2453 15.2578 13.6719V14.1641H14.2461H13.2344V13.6719C13.2344 13.2672 13.2508 13.1742 13.3328 13.1305C13.4586 13.0539 15.0172 13.0539 15.1539 13.125ZM16.9367 15.1047C17.2812 15.3399 17.3414 15.5641 17.325 16.5485L17.3086 17.418H14.2461H11.1836L11.1672 16.5485C11.1562 15.761 11.1617 15.657 11.2656 15.4438C11.3313 15.318 11.4625 15.1594 11.5555 15.0992C11.725 14.9899 11.807 14.9844 14.2406 14.9844H16.7562L16.9367 15.1047ZM17.3359 19.4688V20.6719H14.2461H11.1562V19.4688V18.2656H14.2461H17.3359V19.4688Z" fill="#00A4FF"/>
<path d="M12.7914 3.27031C12.0039 3.6914 11.7469 3.85 11.6649 3.97031C11.5227 4.18906 11.6649 4.50078 11.9492 4.57187C12.0422 4.59375 12.2555 4.50078 12.7367 4.23828C13.1031 4.03593 13.4258 3.82265 13.4531 3.76797C13.5352 3.62031 13.5188 3.4125 13.4149 3.29218C13.2508 3.10625 13.1086 3.10078 12.7914 3.27031Z" fill="#00A4FF"/>
<path d="M0.678125 4.65933C0.557812 4.71401 0.4375 4.91636 0.4375 5.05855C0.4375 5.24995 0.689063 5.40308 1.29609 5.57261C2.03437 5.78042 2.25859 5.78589 2.37344 5.62183C2.48828 5.45776 2.48281 5.23355 2.36797 5.09683C2.30234 5.02573 2.02344 4.91636 1.575 4.79058C0.809375 4.57183 0.842187 4.5773 0.678125 4.65933Z" fill="#00A4FF"/>
<path d="M1.77733 9.42812C1.13202 9.8 0.995298 9.94766 1.08827 10.1883C1.14842 10.3359 1.3453 10.5 1.47108 10.5C1.55858 10.5 2.70702 9.87656 2.86014 9.74531C2.98592 9.63594 2.98592 9.28594 2.85467 9.17109C2.66874 9.00156 2.41717 9.06172 1.77733 9.42812Z" fill="#00A4FF"/>
</svg>
