<svg width="26" height="28" viewBox="0 0 26 28" fill="none" xmlns="http://www.w3.org/2000/svg">
<path d="M0 26.8988C5.48326 21.1881 11.001 10.1162 9.31449 2.89477C9.26275 2.66732 9.20275 2.4324 9.13001 2.20122C8.99728 1.74258 8.83006 1.27648 8.62383 0.80728C8.50385 0.530108 8.37487 0.259771 8.23314 0C12.9357 3.74742 21.4306 10.5245 25.9442 14.1227C24.8801 14.656 22.4047 15.8896 21.3661 16.4159C21.1171 20.7252 19.4441 25.2339 17.1787 28C19.2724 20.1348 15.6339 9.94464 10.5541 2.96811C13.0895 7.13191 13.2522 14.0096 11.1112 18.913H16.0658L0 26.8988Z" fill="#00A4FF"/>
</svg>
