<svg width="104" height="36" viewBox="0 0 104 36" fill="none" xmlns="http://www.w3.org/2000/svg">
<path d="M41.2988 27.2378V7.75366H46.1562V16.6172L54.3361 7.75366H59.826L50.7601 17.2596L49.7795 17.9412L45.4447 22.1369L46.1562 19.4098V27.237H41.2988V27.2378ZM53.64 25.7301C53.2283 25.1005 52.7906 24.4644 52.3268 23.822C51.8631 23.1796 51.3906 22.5436 50.9115 21.914C50.4313 21.2843 49.9589 20.6771 49.4951 20.0914C49.0304 19.5057 48.5936 18.9504 48.1819 18.4262L49.9377 17.0359L51.4572 15.6065C51.7204 15.9037 52.0819 16.3432 52.5409 16.9241C52.9998 17.5057 53.5166 18.1721 54.0912 18.9232C54.6659 19.6751 55.2588 20.4573 55.8711 21.2699C56.4833 22.0833 57.0734 22.8824 57.6432 23.6694C58.213 24.4556 58.724 25.1732 59.1781 25.8196C59.2938 25.977 59.4076 26.1344 59.5185 26.2918C59.6293 26.4492 59.7402 26.6066 59.8511 26.764C59.962 26.9214 60.0748 27.0788 60.1914 27.2362H54.6061C54.4682 27.0613 54.34 26.8671 54.2185 26.653C54.0961 26.4396 53.9032 26.132 53.64 25.7301Z" fill="#F9F9F9"/>
<path d="M63.5596 11.4113L61.3604 9.92996C61.4442 9.86044 61.6448 9.69824 61.962 9.44495C62.2782 9.19166 62.6446 8.89043 63.0611 8.54045C63.4776 8.19128 63.8942 7.83252 64.3107 7.46497C64.7272 7.09742 65.083 6.76582 65.379 6.46859C65.674 6.17135 65.8485 5.95721 65.9015 5.82617L69.2394 7.5177C68.902 7.87647 68.4903 8.2584 68.0053 8.6651C67.5203 9.07181 67.0084 9.46253 66.4704 9.83887C65.9324 10.2144 65.4108 10.5428 64.9036 10.8225C64.3984 11.1013 63.9501 11.2987 63.5596 11.4113ZM62.8317 13.6534H67.7681V27.2368H62.8317V13.6534Z" fill="#F9F9F9"/>
<path d="M82.5457 16.9056C82.1234 16.8185 81.6279 16.7266 81.059 16.6299C80.4892 16.534 79.877 16.4861 79.2233 16.4861C78.9282 16.4861 78.5744 16.5085 78.1636 16.5516C77.752 16.5956 77.4405 16.6435 77.2303 16.6954V27.2369H72.5156V14.1785C73.3593 13.934 74.3562 13.7023 75.5064 13.4834C76.6557 13.2652 77.938 13.1558 79.3505 13.1558C79.6031 13.1558 79.9097 13.1685 80.2684 13.1949C80.6271 13.2213 80.9857 13.2564 81.3444 13.2996C81.7031 13.3427 82.0617 13.3955 82.4204 13.457C82.7791 13.5185 83.0847 13.5928 83.3383 13.6799L82.5457 16.9056Z" fill="#F9F9F9"/>
<path d="M100.075 26.7657C99.2727 26.9582 98.2401 27.1372 96.9742 27.3034C95.7092 27.4696 94.3796 27.5527 92.9874 27.5527C91.574 27.5527 90.3977 27.3953 89.4596 27.0805C88.5205 26.7657 87.7771 26.3246 87.2285 25.7565C86.6799 25.1884 86.2894 24.5108 86.058 23.7238C85.8257 22.9367 85.71 22.0714 85.71 21.1277V13.4443H90.4247V20.6555C90.4247 21.914 90.6252 22.8233 91.0253 23.3826C91.4255 23.9419 92.1746 24.2216 93.2718 24.2216C93.6093 24.2216 93.9679 24.2088 94.3478 24.1824C94.7277 24.156 95.0652 24.1257 95.3602 24.0905V13.4443H100.075V26.7657Z" fill="#F9F9F9"/>
<path d="M0 34.5841C7.0499 27.2419 14.1442 13.0065 11.9758 3.72185C11.9092 3.42941 11.8321 3.12738 11.7386 2.83014C11.5679 2.24046 11.3529 1.64119 11.0878 1.03793C10.9335 0.681567 10.7677 0.333992 10.5855 0C16.6317 4.81811 27.5536 13.5315 33.3569 18.1578C31.9887 18.8434 28.8061 20.4294 27.4707 21.1062C27.1506 26.6466 24.9996 32.4435 22.0869 36C24.7788 25.8876 20.1007 12.786 13.5695 3.81614C16.8293 9.16959 17.0386 18.0124 14.2859 24.3167H20.6561L0 34.5841Z" fill="#00A4FF"/>
<path d="M101.727 10.5826H101.088V12.0512H100.827V10.5826H100.189V10.4038H101.727V10.5826Z" fill="#F9F9F9"/>
<path d="M102.36 10.4038L103.01 11.7479L103.66 10.4038H104V12.0512H103.738V11.4096L103.762 10.7172L103.11 12.0512H102.909L102.258 10.7206L102.284 11.4096V12.0512H102.022V10.4038H102.36Z" fill="#F9F9F9"/>
</svg>
