<svg width="24" height="30" viewBox="0 0 24 30" fill="none" xmlns="http://www.w3.org/2000/svg">
<path d="M0 28.8201C5.07235 22.7016 10.1766 10.8388 8.61647 3.10154C8.5686 2.85784 8.51311 2.60615 8.44582 2.35845C8.32303 1.86705 8.16834 1.36766 7.97757 0.864943C7.86658 0.567972 7.74726 0.278326 7.61615 0C11.9664 4.01509 19.8246 11.2762 24 15.1315C23.0156 15.7028 20.7257 17.0245 19.7649 17.5885C19.5346 22.2055 17.987 27.0363 15.8913 30C17.8281 21.573 14.4623 10.655 9.76316 3.18011C12.1086 7.64133 12.2591 15.0103 10.2786 20.2639H14.8619L0 28.8201Z" fill="#00A4FF"/>
</svg>
