<svg width="56" height="56" viewBox="0 0 56 56" fill="none" xmlns="http://www.w3.org/2000/svg">
<path d="M40.3041 0.0656204C38.0072 0.404682 36.0275 1.08281 34.3431 2.09999C33.2166 2.78906 31.8384 4.06874 26.9494 8.99062C20.8681 15.1047 20.4634 15.5969 19.4681 18.0797L19.0744 19.0641L18.1009 19.4578C17.0181 19.8953 16.1759 20.3547 15.0931 21.0984C14.1962 21.7109 3.82749 32.0031 2.96343 33.1406C-0.613134 37.8109 -0.952196 44.1766 2.09937 49.2187C3.12749 50.8922 5.10718 52.8828 6.78062 53.9C9.07749 55.2781 11.4509 55.9344 14.2181 55.9453C17.5103 55.9453 20.2447 55.0266 22.8587 53.0359C23.9634 52.1937 34.2775 41.8141 34.9119 40.9062C35.6228 39.8891 36.0822 39.0359 36.5306 37.9203L36.9244 36.9359L37.8978 36.5422C40.4134 35.525 40.9056 35.1203 47.0087 29.05C53.1556 22.9359 53.7353 22.2578 54.7087 20.0703C55.6275 18.0031 55.9447 16.5047 55.9447 14.2187C55.9337 10.9047 55.0259 8.20312 53.0353 5.57812C50.9681 2.85468 48.0041 1.01719 44.4603 0.273434C43.6181 0.0984344 40.9822 -0.0328178 40.3041 0.0656204ZM43.5962 2.35156C46.2103 2.77812 48.4197 3.89375 50.2572 5.74218C53.8228 9.30781 54.7853 14.5906 52.7072 19.2172C51.9197 20.9781 51.4384 21.5359 45.9478 27.0484C43.0822 29.925 40.4025 32.5391 39.9759 32.8672C39.5603 33.1844 38.8275 33.6547 38.3681 33.9062L37.515 34.3656L37.5041 32.6812C37.4931 31.7625 37.4275 30.6906 37.3619 30.2969L37.2306 29.5859L42.6666 24.1172L48.1025 18.6484L48.5947 17.6094C49.7103 15.2906 49.7103 13.1359 48.5947 10.8281C48.1791 9.96406 47.9494 9.64687 47.1509 8.85937C45.7291 7.4375 44.2306 6.74844 42.2181 6.60625C40.9275 6.50781 39.7134 6.75937 38.4447 7.37187C37.3181 7.92968 36.99 8.225 36.8916 8.78281C36.8369 9.13281 36.8806 9.23125 37.2306 9.58125C37.5806 9.93125 37.6791 9.975 38.04 9.93125C38.2697 9.89843 38.6962 9.72343 38.9916 9.5375C39.8884 9.00156 40.6212 8.80468 41.7806 8.80468C43.9025 8.80468 45.6634 9.86562 46.5822 11.7031C47.3916 13.3219 47.4244 14.9187 46.6806 16.5703C46.3525 17.2922 46.0791 17.5875 41.4634 22.225C38.7837 24.9266 36.5634 27.125 36.5306 27.125C36.4978 27.125 36.3009 26.7969 36.1041 26.3812C34.8134 23.7562 32.5712 21.4594 29.9134 20.0594C29.3666 19.775 28.9072 19.5234 28.8744 19.5016C28.8525 19.4797 29.6728 18.6156 30.7009 17.5766C31.7291 16.5375 32.6259 15.5859 32.6916 15.4547C32.8884 15.0609 32.8228 14.6781 32.4947 14.3062C32.2322 14.0109 32.1009 13.9453 31.7181 13.9453C31.2697 13.9453 31.2369 13.9781 28.7869 16.4609C26.7197 18.5609 26.2384 19.1078 25.8884 19.7531C25.3087 20.8687 25.0353 22.0172 25.0353 23.3516C25.0353 25.3859 25.6259 26.9062 27.0806 28.6125C28.3603 30.0891 28.765 31.0516 28.765 32.5719C28.765 33.5781 28.59 34.4422 28.3712 34.5297C28.1634 34.6062 26.5447 33.7641 25.5712 33.0641C23.0994 31.2812 21.2728 28.3391 20.7806 25.3531C20.6275 24.3578 20.6494 22.2687 20.8353 21.2078C21.1634 19.3266 22.0494 17.3797 23.2525 15.8812C23.6244 15.4219 26.2384 12.7422 29.0603 9.94218C34.4634 4.57187 35.0322 4.07969 36.7931 3.29218C38.9587 2.31874 41.3431 1.97968 43.5962 2.35156ZM28.6884 21.875C31.6306 23.3516 33.84 25.9437 34.8244 29.0609C35.2072 30.2969 35.3275 31.1172 35.3275 32.6047C35.3275 35.4594 34.4634 37.9859 32.7462 40.1187C32.3744 40.5781 29.7603 43.2578 26.9384 46.0578C21.5462 51.4281 20.9666 51.9203 19.2166 52.7078C14.59 54.7859 9.30718 53.8234 5.74155 50.2578C2.17593 46.6922 1.21343 41.4094 3.29155 36.7828C4.07905 35.0219 4.5603 34.4641 10.0509 28.9516C12.9166 26.075 15.6072 23.4609 16.0228 23.1328C16.4494 22.8156 17.1712 22.3453 17.6416 22.0937L18.4837 21.6344L18.4947 23.3187C18.5056 24.2375 18.5712 25.3094 18.6369 25.7031L18.7681 26.4141L13.3322 31.8828L7.89624 37.3516L7.40405 38.3906C6.28843 40.7094 6.28843 42.8641 7.40405 45.1719C7.81968 46.0359 8.04937 46.3531 8.8478 47.1516C9.64624 47.95 9.96343 48.1797 10.8275 48.5953C13.1244 49.7 15.29 49.7109 17.6087 48.5953L18.6478 48.1031L24.1712 42.5687C29.1369 37.5922 29.7384 36.9469 30.1103 36.2469C30.69 35.1312 30.9634 33.9828 30.9634 32.6484C30.9634 30.6141 30.3728 29.0937 28.9181 27.3875C27.5619 25.8125 27.1791 24.8281 27.2556 23.1109C27.3103 22.0172 27.4525 21.4375 27.6822 21.4375C27.7478 21.4375 28.2072 21.6344 28.6884 21.875ZM19.8947 29.6078C21.1853 32.2437 23.4275 34.5406 26.0853 35.9406C26.6322 36.225 27.0916 36.4766 27.1244 36.4984C27.1462 36.5203 25.0025 38.7078 22.3666 41.3547C17.8603 45.8609 17.4994 46.1891 16.7119 46.5828C15.0931 47.4031 13.4634 47.425 11.8337 46.6484C10.7509 46.1344 9.95249 45.3578 9.41655 44.2859C8.60718 42.6891 8.57437 41.0812 9.31812 39.4297C9.64624 38.7078 9.91968 38.4125 14.5353 33.7641C17.215 31.0734 19.4353 28.875 19.4681 28.875C19.5009 28.875 19.6978 29.2031 19.8947 29.6078Z" fill="#00A4FF"/>
<path d="M34.1454 11.1014C33.522 11.6154 33.6642 12.5561 34.397 12.8623C35.5017 13.3217 36.3985 11.9873 35.5564 11.1451C35.1407 10.7295 34.6048 10.7186 34.1454 11.1014Z" fill="#00A4FF"/>
<path d="M19.0859 2.83286C18.9656 2.88755 18.7688 3.04067 18.6484 3.17192C18.4406 3.40161 18.4297 3.56567 18.4297 7.1313V10.85L18.7906 11.1672C19.2828 11.6047 19.7094 11.5938 20.1906 11.1125L20.5734 10.7297L20.5406 7.06567L20.5078 3.39067L20.2344 3.11724C19.9281 2.82192 19.425 2.69067 19.0859 2.83286Z" fill="#00A4FF"/>
<path d="M8.98945 8.47668C8.56288 8.66262 8.30038 9.18762 8.38788 9.67981C8.43163 9.92043 9.07695 10.6314 10.8598 12.4361C12.1832 13.7704 13.441 14.9517 13.6488 15.0501C14.1738 15.2907 14.7426 15.0829 15.0051 14.547C15.3441 13.8361 15.2457 13.6939 12.7519 11.1782C11.4832 9.88762 10.3238 8.75012 10.1707 8.65168C9.76601 8.35637 9.39413 8.31262 8.98945 8.47668Z" fill="#00A4FF"/>
<path d="M3.77329 18.4732C3.07329 18.7686 2.88735 19.6764 3.42329 20.2014L3.7186 20.5076L7.3936 20.5404L11.0577 20.5732L11.4514 20.1795C11.7905 19.8404 11.8342 19.742 11.7795 19.392C11.7358 19.1732 11.5827 18.867 11.4295 18.7139L11.1561 18.4295L7.5686 18.4076C5.59985 18.3967 3.8936 18.4295 3.77329 18.4732Z" fill="#00A4FF"/>
<path d="M44.8875 35.6998C44.625 35.9623 44.5156 36.1701 44.5156 36.4217C44.5156 36.6732 44.625 36.8811 44.8875 37.1436L45.2703 37.5264L48.9344 37.4936L52.6094 37.4607L52.9047 37.1545C53.3203 36.7389 53.3203 36.1045 52.9047 35.6889L52.6094 35.3826L48.9344 35.3498L45.2703 35.317L44.8875 35.6998Z" fill="#00A4FF"/>
<path d="M41.452 40.9937C40.9161 41.2562 40.7083 41.8358 40.9489 42.3499C41.0473 42.5577 42.2286 43.8155 43.563 45.139C46.1552 47.7093 46.2973 47.8077 47.0083 47.5124C47.4348 47.3374 47.7302 46.7468 47.6208 46.2874C47.5442 46.003 43.3005 41.5843 42.6552 41.1358C42.2177 40.8296 41.8677 40.7858 41.452 40.9937Z" fill="#00A4FF"/>
<path d="M35.6992 44.8874L35.3164 45.2702L35.3492 48.9343L35.382 52.6093L35.6883 52.9046C36.1039 53.3202 36.7383 53.3202 37.1539 52.9046L37.4602 52.6093L37.493 48.9343L37.5258 45.2702L37.143 44.8874C36.8805 44.6249 36.6727 44.5155 36.4211 44.5155C36.1695 44.5155 35.9617 44.6249 35.6992 44.8874Z" fill="#00A4FF"/>
</svg>
