<svg width="36" height="56" viewBox="0 0 36 56" fill="none" xmlns="http://www.w3.org/2000/svg">
<path d="M7.46719 0.0656242C7.42344 0.109375 7.39062 0.514065 7.39062 0.973438V1.80469L6.46094 3.19375C5.94688 3.95938 5.53125 4.65937 5.53125 4.74688C5.53125 4.82344 4.73281 5.34844 3.75937 5.91719C2.775 6.475 1.84531 7.02188 1.68125 7.13125C1.21094 7.44844 1.2875 7.63438 1.88906 7.67813C2.28281 7.7 2.425 7.75469 2.44687 7.89688C2.47969 8.03906 2.41406 8.09375 2.21719 8.09375C1.68125 8.09375 1.60469 8.575 2.12969 8.65156C2.49062 8.70625 2.56719 8.96875 2.21719 8.96875C1.67031 8.96875 1.60469 9.46094 2.14062 9.52656C2.38125 9.57031 2.425 9.63594 2.46875 10.0625C2.52344 10.5328 2.53437 10.5547 2.90625 10.5875C3.25625 10.6203 3.32187 10.675 3.5625 11.1891C3.71563 11.5063 3.83594 11.7906 3.83594 11.8453C3.83594 11.8891 3.125 12.3156 2.25 12.7859C1.375 13.2672 0.620313 13.7266 0.554688 13.825C0.401562 14.0766 0.653125 14.2188 1.24375 14.2188C1.62656 14.2188 1.70312 14.2516 1.70312 14.4266C1.70312 14.5797 1.61563 14.6562 1.40781 14.6781C1.18906 14.7 1.09062 14.7766 1.06875 14.9625C1.03594 15.1594 1.09062 15.2141 1.36406 15.2687C1.77969 15.3563 1.80156 15.5094 1.40781 15.5531C0.948438 15.6078 0.915625 16.0344 1.36406 16.1328C1.65937 16.1984 1.69219 16.2531 1.725 16.6578C1.75781 17.0516 1.79062 17.1172 2.03125 17.15C2.27187 17.1828 2.3375 17.2812 2.55625 18.0797C2.81875 19.0531 3.63906 20.8359 4.2625 21.8203C4.48125 22.1484 4.65625 22.5094 4.65625 22.6188C4.65625 22.7172 4.33906 24.1281 3.95625 25.7578C3.25625 28.7 3.24531 28.7219 2.00937 31.5547C0.773438 34.3656 0.751562 34.3984 0.4125 34.4312C0.10625 34.4641 0.0625 34.5078 0.0625 34.7922V35.1094H1.92188H3.78125V34.7922C3.78125 34.4969 3.74844 34.4641 3.35469 34.4312L2.92812 34.3984L4.85313 31.6422L6.78906 28.875H7.45625H8.12344L9.95 31.5C10.9453 32.9328 11.7984 34.1906 11.8313 34.2891C11.8859 34.4203 11.8094 34.4531 11.5031 34.4531C11.1422 34.4531 11.1094 34.475 11.1094 34.7812V35.1094H12.9688H14.8281V34.7812C14.8281 34.4969 14.7844 34.4531 14.5219 34.4531C14.1609 34.4531 14.2922 34.7047 12.7063 31.0516C12.0719 29.5641 11.5469 28.2516 11.5469 28.1313C11.5469 27.9234 11.6125 27.9344 12.6187 28.35C13.7781 28.8203 15.725 29.4328 16.7203 29.6406C17.3 29.7609 17.3438 29.7938 17.3438 30.0672C17.3438 30.2313 17.3984 30.4172 17.475 30.4937C17.65 30.6688 19.0063 30.6688 19.1812 30.4937C19.2578 30.4172 19.3125 30.1 19.3125 29.7828C19.3125 29.2141 19.3234 29.2031 19.6297 29.2031C19.8047 29.2031 20.0562 29.1156 20.1875 29.0063C20.3953 28.8313 20.4172 28.7656 20.3078 28.5688C20.2094 28.3828 20.0781 28.3281 19.75 28.3281C19.3891 28.3281 19.3125 28.2953 19.3125 28.1094C19.3125 27.9234 19.3891 27.8906 19.75 27.8906C20.0453 27.8906 20.2094 27.8359 20.2859 27.6938C20.4609 27.3656 20.2312 27.125 19.75 27.125C19.3234 27.125 19.3125 27.1141 19.3125 26.7422V26.3594H21.0625H22.8125V29.7391V33.1187L21.2375 39.8891L19.6625 46.6594L17.8469 50.8156L16.0422 54.9609L15.55 54.9937L15.0469 55.0266V55.5188V56H17.6719H20.2969V55.5078V55.0266L19.6953 54.9937L19.0938 54.9609L21.8391 51.0453L24.5734 47.1406H25.525L26.4766 47.1516L29.0688 50.9031C30.5016 52.9703 31.7047 54.7422 31.7375 54.8406C31.7922 54.9828 31.7156 55.0156 31.2453 55.0156H30.6875V55.5078V56H33.3125H35.9375V55.5078V55.0156H35.4781H35.0078L33.1922 50.8266L31.3766 46.6484L30.0422 40.075L28.7188 33.4906V31.1281C28.7188 29.8266 28.7406 28.7656 28.7734 28.7656C28.8062 28.7656 29.4187 28.9297 30.1297 29.1375C30.8297 29.3453 31.5953 29.5422 31.8141 29.5859C32.175 29.6516 32.2078 29.6953 32.2406 30.0672L32.2734 30.4609L33.1375 30.4937C34.1437 30.5266 34.1875 30.5047 34.1875 29.6625C34.1875 29.1047 34.1984 29.0938 34.5047 29.0938C34.9859 29.0938 35.1719 28.9844 35.1719 28.7219C35.1719 28.3828 34.9641 28.2188 34.5484 28.2188C34.2969 28.2188 34.1875 28.1641 34.1875 28.0547C34.1875 27.9453 34.2969 27.8906 34.5484 27.8906C34.9641 27.8906 35.1719 27.7266 35.1719 27.3875C35.1719 27.125 34.9859 27.0156 34.5047 27.0156C34.2203 27.0156 34.1875 26.9719 34.1875 26.6875V26.3594H34.8875C35.6969 26.3594 36.0031 26.1625 35.675 25.8344C35.5766 25.7359 33.9797 24.8391 32.1312 23.8328L28.7734 22.0172L28.7406 20.8688L28.7078 19.7203L30.0859 19.9938L31.4531 20.2672V20.7266C31.4531 21.0547 31.5078 21.2188 31.6281 21.2625C31.9344 21.3828 33.1594 21.3281 33.2906 21.1969C33.3672 21.1203 33.4219 20.8031 33.4219 20.4859V19.9062H33.7828C34.1984 19.9062 34.4062 19.7422 34.4062 19.4031C34.4062 19.1406 34.2203 19.0312 33.7391 19.0312C33.2578 19.0312 33.3563 18.7578 33.8922 18.6375C34.3078 18.55 34.3516 18.5063 34.3516 18.2109C34.3516 17.9047 34.3187 17.8828 33.8922 17.85C33.4766 17.8172 33.4219 17.7844 33.4219 17.5438C33.4219 17.3141 33.4766 17.2812 33.7828 17.2812C34.2859 17.2812 34.6141 17.0297 34.45 16.7672C34.3844 16.6578 33.0719 15.8594 31.5406 14.9844C29.1672 13.6391 28.7297 13.3547 28.675 13.1141C28.6422 12.95 28.0516 11.9547 27.3625 10.8937L26.0938 8.95781V7.7875C26.0938 6.42031 25.9406 6.08125 25.5031 6.51875C25.3609 6.65 25.3281 6.94531 25.3281 7.85313V9.02344L24.0703 10.9375C23.3813 11.9875 22.8125 12.9391 22.8125 13.0703C22.8125 13.2453 22.3969 13.5187 20.9203 14.3609L19.0391 15.4438L18.6891 15.2578C17.3547 14.5359 14.7078 12.1844 13.625 10.7516C12.9797 9.8875 12.9141 9.51562 13.4172 9.51562C13.7016 9.51562 13.7453 9.48281 13.7125 9.26406C13.6906 9.08906 13.5922 9.0125 13.3844 8.99063C12.9578 8.93594 12.9797 8.64062 13.4172 8.64062C13.7016 8.64062 13.7453 8.60781 13.7125 8.38906C13.6906 8.21406 13.5922 8.1375 13.3844 8.11563C12.925 8.06094 12.9688 7.67813 13.4391 7.63438C14.1281 7.56875 13.8219 7.29531 11.7656 6.11406C10.4203 5.34844 9.73125 4.9 9.69844 4.75781C9.67656 4.64844 9.26094 3.95938 8.76875 3.2375L7.88281 1.91406L7.82812 0.995312C7.77344 0.153126 7.66406 -0.131248 7.46719 0.0656242ZM8.38594 3.53281C8.79062 4.14531 9.15156 4.71406 9.18437 4.77969C9.25 4.88906 8.91094 4.92188 7.675 4.92188C6.50469 4.92188 6.07812 4.88906 6.07812 4.79063C6.07812 4.64844 7.52187 2.40625 7.60938 2.40625C7.64219 2.40625 7.99219 2.90937 8.38594 3.53281ZM8.42969 6.07031C8.00312 6.45312 7.64219 6.77031 7.60938 6.78125C7.57656 6.78125 7.22656 6.46406 6.84375 6.07031L6.14375 5.35938H7.66406H9.18437L8.42969 6.07031ZM5.49844 7.18594C5.47656 7.20781 4.79844 7.20781 4.01094 7.19688L2.56719 7.16406L4.02187 6.33281L5.47656 5.50156L5.50938 6.31094C5.53125 6.77031 5.52031 7.15313 5.49844 7.18594ZM11.175 6.35469C11.9187 6.78125 12.5312 7.14219 12.5312 7.175C12.5312 7.19688 11.8969 7.21875 11.1094 7.21875H9.6875V6.39844C9.6875 5.95 9.72031 5.57812 9.75313 5.57812C9.79688 5.57812 10.4312 5.92813 11.175 6.35469ZM7.28125 7.13125C7.28125 7.175 7.00781 7.21875 6.67969 7.21875H6.07812V6.54063V5.8625L6.67969 6.45312C7.00781 6.78125 7.28125 7.0875 7.28125 7.13125ZM9.20625 7.06562C9.14062 7.24063 8.10156 7.28437 8.00312 7.12031C7.95937 7.06562 8.22188 6.77031 8.56094 6.46406L9.19531 5.91719L9.22812 6.42031C9.25 6.69375 9.23906 6.98906 9.20625 7.06562ZM5.53125 9.31875V10.9922L4.98438 11.2875C4.67812 11.4625 4.39375 11.5938 4.35 11.5938C4.14219 11.5938 3.77031 10.5438 3.80312 10.0625C3.83594 9.61406 3.86875 9.57031 4.16406 9.51562C4.40469 9.47187 4.49219 9.39531 4.49219 9.24219C4.49219 9.07812 4.40469 9.0125 4.13125 8.99063C3.69375 8.94688 3.71563 8.71719 4.175 8.64062C4.64531 8.55313 4.62344 8.15937 4.14219 8.11563C3.80312 8.08281 3.68281 7.90781 3.85781 7.73281C3.89062 7.68906 4.28437 7.65625 4.73281 7.65625H5.53125V9.31875ZM6.625 7.73281C6.625 7.84219 6.275 8.20312 6.16563 8.20312C6.12187 8.20312 6.07812 8.08281 6.07812 7.92969C6.07812 7.71094 6.13281 7.65625 6.35156 7.65625C6.50469 7.65625 6.625 7.68906 6.625 7.73281ZM8.57187 8.24688L9.17344 8.82656L8.41875 9.82188C8.00312 10.3688 7.64219 10.8172 7.60938 10.8172C7.55469 10.8281 6.30781 9.26406 6.15469 9.00156C6.11094 8.93594 6.34062 8.61875 6.70156 8.26875C7.53281 7.47031 7.75156 7.45938 8.57187 8.24688ZM9.22812 7.95156C9.27187 8.27969 9.12969 8.26875 8.80156 7.91875L8.53906 7.63438L8.86719 7.67813C9.10781 7.7 9.20625 7.77656 9.22812 7.95156ZM11.6562 7.86406C11.6562 8.01719 11.5687 8.09375 11.3609 8.11563C11.1422 8.1375 11.0547 8.21406 11.0547 8.36719C11.0547 8.52031 11.1422 8.59687 11.3609 8.61875C11.525 8.64062 11.6562 8.71719 11.6562 8.80469C11.6562 8.89219 11.525 8.96875 11.3609 8.99063C10.9344 9.03437 10.9344 9.45 11.35 9.49375C11.6125 9.52656 11.6453 9.58125 11.6781 10.0406L11.7109 10.5547L12.3562 10.5875C12.9031 10.6203 13.0344 10.6641 13.2312 10.9156C14.4234 12.4469 16.0969 13.9891 17.7375 15.0938C18.1859 15.4109 18.5359 15.6953 18.4922 15.7281C18.4594 15.7719 18.1203 15.9688 17.7594 16.1875C17.3984 16.3953 17.0375 16.6578 16.9719 16.7672C16.7859 17.0734 17.1578 17.2812 17.8578 17.2812C18.4047 17.2812 18.4375 17.2922 18.4375 17.5547C18.4375 17.7953 18.3937 17.8281 18.0656 17.8281C17.3 17.8281 17.2234 18.4734 17.9781 18.6375C18.5469 18.7687 18.5797 19.0094 18.0328 19.0531C17.7266 19.075 17.5844 19.1516 17.5078 19.3375C17.4531 19.4688 17.3547 19.5672 17.2891 19.5453C17.2344 19.5234 16.6656 19.3594 16.0312 19.1953C14.9266 18.9 14.8609 18.8672 14.5 18.3859C13.6469 17.2812 13.5594 17.1063 13.6031 16.5812C13.6469 16.1437 13.6797 16.0891 13.9312 16.0563C14.1391 16.0344 14.2375 15.9469 14.2594 15.7719C14.2922 15.5641 14.2484 15.5312 13.9641 15.5312C13.5266 15.5312 13.5047 15.2359 13.9312 15.1813C14.1391 15.1594 14.2375 15.0828 14.2594 14.8969C14.2922 14.6891 14.2484 14.6562 13.9641 14.6562C13.7016 14.6562 13.625 14.6125 13.625 14.4375C13.625 14.2625 13.7016 14.2188 14.0406 14.2188C14.5219 14.2188 14.7734 14.0766 14.6859 13.8688C14.6531 13.7812 13.5156 13.1031 12.1594 12.3703L9.6875 11.0359V9.34063V7.65625H10.6719C11.5687 7.65625 11.6562 7.67813 11.6562 7.86406ZM4.32812 8.42188C4.32812 8.4875 3.87969 8.53125 3.19062 8.53125C2.54531 8.53125 2.00937 8.4875 1.97656 8.42188C1.93281 8.35625 2.3375 8.3125 3.11406 8.3125C3.84687 8.3125 4.32812 8.35625 4.32812 8.42188ZM13.5703 8.42188C13.5375 8.4875 13.0016 8.53125 12.3562 8.53125C11.6672 8.53125 11.2188 8.4875 11.2188 8.42188C11.2188 8.35625 11.7 8.3125 12.4328 8.3125C13.2094 8.3125 13.6141 8.35625 13.5703 8.42188ZM4.32812 9.29688C4.32812 9.3625 3.87969 9.40625 3.19062 9.40625C2.54531 9.40625 2.00937 9.3625 1.97656 9.29688C1.93281 9.23125 2.3375 9.1875 3.11406 9.1875C3.84687 9.1875 4.32812 9.23125 4.32812 9.29688ZM13.5703 9.29688C13.5375 9.3625 13.0016 9.40625 12.3562 9.40625C11.6672 9.40625 11.2188 9.3625 11.2188 9.29688C11.2188 9.23125 11.7 9.1875 12.4328 9.1875C13.2094 9.1875 13.6141 9.23125 13.5703 9.29688ZM9.25 11.1562C9.25 12.0531 9.20625 12.7969 9.1625 12.7969C9.11875 12.7969 8.80156 12.4359 8.4625 11.9984L7.85 11.2L8.50625 10.3578C8.86719 9.89844 9.17344 9.51562 9.20625 9.51562C9.22812 9.51562 9.25 10.2484 9.25 11.1562ZM7.24844 11.1234C7.27031 11.2 7.02969 11.6047 6.69062 12.0422L6.07812 12.8188V11.2V9.58125L6.63594 10.2922C6.93125 10.675 7.21562 11.0469 7.24844 11.1234ZM26.8156 11.3422C27.3953 12.2391 27.8984 13.0484 27.9312 13.1469C27.975 13.3328 27.8219 13.3438 25.7219 13.3438C24.3438 13.3438 23.4688 13.3 23.4688 13.2344C23.4688 13.125 25.6453 9.73438 25.7219 9.73438C25.7437 9.73438 26.2359 10.4562 26.8156 11.3422ZM5.53125 12.425C5.53125 13.3547 5.4875 13.3656 4.92969 12.6L4.56875 12.0969L4.9625 11.8563C5.18125 11.725 5.4 11.6047 5.45469 11.6047C5.49844 11.5938 5.53125 11.9656 5.53125 12.425ZM8.375 12.5234C8.75781 13.0266 9.09688 13.4969 9.11875 13.5516C9.15156 13.6391 8.64844 13.6719 7.62031 13.6719C6.65781 13.6719 6.07812 13.6281 6.07812 13.5625C6.07812 13.4313 7.5 11.5938 7.59844 11.5938C7.63125 11.5938 7.98125 12.0094 8.375 12.5234ZM12.2031 12.9609C12.8375 13.3 13.3734 13.6063 13.3953 13.6281C13.4172 13.65 12.5969 13.6719 11.5687 13.6719H9.6875V12.6328V11.5828L10.3766 11.9547C10.7484 12.1625 11.5687 12.6109 12.2031 12.9609ZM4.68906 13.0156L5.20312 13.6719H3.48594C2.54531 13.6719 1.8125 13.6391 1.85625 13.5953C1.94375 13.4969 4.03281 12.3703 4.12031 12.3594C4.15312 12.3594 4.41563 12.6547 4.68906 13.0156ZM27.8219 13.9672C27.8109 14.0219 27.3297 14.4922 26.7828 15.0281L25.7656 16.0016L24.9234 15.2031C24.4531 14.7547 23.95 14.2844 23.7969 14.1422L23.5234 13.8906H25.7C26.8922 13.8906 27.8438 13.9234 27.8219 13.9672ZM22.8125 15.3125V16.5156H21.8281C20.9312 16.5156 20.7781 16.4828 20.2859 16.1984C19.8813 15.9688 19.7719 15.8594 19.8813 15.7938C20.0781 15.6516 22.7469 14.1203 22.7906 14.1094C22.8016 14.1094 22.8125 14.6453 22.8125 15.3125ZM5.53125 16.625C5.53125 18.9438 5.52031 19.0969 5.19219 20.475L4.85313 21.9078L4.64531 21.6453C4.22969 21.1203 3.35469 19.2828 3.05938 18.3312C2.81875 17.5547 2.78594 17.325 2.88437 17.1609C2.96094 17.0516 3.01562 16.7891 3.01562 16.5812C3.01562 16.2422 3.04844 16.2094 3.40937 16.1437C3.72656 16.0781 3.79219 16.0234 3.75937 15.8266C3.7375 15.6406 3.63906 15.575 3.37656 15.5531C2.97187 15.5094 2.88437 15.3125 3.26719 15.3125C3.89062 15.3016 3.98906 14.7328 3.36562 14.6781C3.10312 14.6562 3.01562 14.5906 3.01562 14.4266C3.01562 14.2297 3.10312 14.2188 4.27344 14.2188H5.53125V16.625ZM8.53906 14.5141C8.44063 14.6891 8.24375 14.9625 8.10156 15.1375L7.85 15.4547L7.30312 15.0063C6.35156 14.1969 6.34062 14.2188 7.59844 14.2188H8.71406L8.53906 14.5141ZM12.2031 14.4266C12.2031 14.5797 12.1156 14.6562 11.9078 14.6781C11.6891 14.7 11.6016 14.7766 11.6016 14.9297C11.6016 15.0828 11.6891 15.1594 11.9078 15.1813C12.0719 15.2031 12.2031 15.2797 12.2031 15.3672C12.2031 15.4547 12.0719 15.5312 11.9078 15.5531C11.6891 15.575 11.6016 15.6516 11.6016 15.8047C11.6016 15.9578 11.6891 16.0344 11.9078 16.0563C12.1812 16.0891 12.2031 16.1328 12.2031 16.5812V17.0625H12.6297C13.0344 17.0625 13.0891 17.1063 13.5703 17.7844C13.8547 18.1781 14.0625 18.5172 14.0297 18.55C13.9641 18.6266 11.5141 17.6094 10.5625 17.1063L9.74219 16.6797L9.70937 15.4438L9.67656 14.2188H10.9453C12.1156 14.2188 12.2031 14.2297 12.2031 14.4266ZM31.6062 15.8156L32.8203 16.5156H30.775H28.7188V15.3563V14.2078L29.55 14.6672C30.0094 14.9188 30.9281 15.4328 31.6062 15.8156ZM9.20625 16.275C9.14062 16.3297 8.26562 15.7828 8.26562 15.6844C8.26562 15.6516 8.47344 15.3234 8.73594 14.9516L9.19531 14.2734L9.22812 15.2469C9.25 15.7828 9.22812 16.2422 9.20625 16.275ZM6.86562 15.4438L7.39062 16.1656L6.77812 17.0516C6.45 17.5438 6.15469 17.9375 6.12187 17.9375C6.1 17.9375 6.07812 17.1938 6.07812 16.2859C6.07812 15.0391 6.11094 14.6453 6.20937 14.6781C6.28594 14.7109 6.58125 15.05 6.86562 15.4438ZM25.3281 16.4172C25.3281 16.4719 24.9125 16.5156 24.3984 16.5156H23.4688V15.575V14.6344L24.3984 15.4766C24.9125 15.9469 25.3281 16.3625 25.3281 16.4172ZM27.9531 15.6406V16.5156H27.0781C26.5969 16.5156 26.2031 16.4719 26.2031 16.4172C26.2031 16.3297 27.8328 14.7656 27.9312 14.7656C27.9422 14.7656 27.9531 15.1594 27.9531 15.6406ZM3.5625 14.9844C3.5625 15.05 3.10312 15.0938 2.41406 15.0938C1.725 15.0938 1.26562 15.05 1.26562 14.9844C1.26562 14.9188 1.725 14.875 2.41406 14.875C3.10312 14.875 3.5625 14.9188 3.5625 14.9844ZM13.6031 14.9516C13.2531 14.9734 12.6844 14.9734 12.3453 14.9516C11.9953 14.9297 12.2797 14.9188 12.9688 14.9188C13.6578 14.9188 13.9422 14.9297 13.6031 14.9516ZM14.1172 15.75C14.1609 15.8156 13.7562 15.8594 12.9797 15.8594C12.2469 15.8594 11.7656 15.8156 11.7656 15.75C11.7656 15.6844 12.2141 15.6406 12.9031 15.6406C13.5484 15.6406 14.0844 15.6844 14.1172 15.75ZM3.5625 15.8594C3.5625 15.925 3.11406 15.9688 2.425 15.9688C1.77969 15.9688 1.24375 15.925 1.21094 15.8594C1.16719 15.7938 1.57187 15.75 2.34844 15.75C3.08125 15.75 3.5625 15.7938 3.5625 15.8594ZM8.93281 16.7344C9.23906 16.9859 9.26094 17.0625 9.22812 17.5547L9.19531 18.1016L8.57187 17.1938C8.22188 16.6906 7.9375 16.2313 7.9375 16.1766C7.9375 16.0453 8.47344 16.3516 8.93281 16.7344ZM19.8594 16.4609C19.8594 16.4938 19.575 16.5156 19.2359 16.5156H18.6016L18.9297 16.3078C19.225 16.1328 19.2906 16.1219 19.5641 16.2641C19.7281 16.3406 19.8594 16.4391 19.8594 16.4609ZM8.42969 17.675C8.82344 18.2547 9.12969 18.7469 9.10781 18.7687C9.08594 18.8016 8.38594 18.8016 7.56562 18.7906L6.07812 18.7578L6.81094 17.6859C7.21562 17.1063 7.57656 16.625 7.62031 16.625C7.66406 16.625 8.025 17.0953 8.42969 17.675ZM13.4062 18.8016L14.675 19.2609L15.5391 20.2453C16.2719 21.0875 17.1141 21.875 19.0063 23.5156L19.3234 23.7891L17.5844 24.7516C16.6219 25.2766 15.7797 25.7797 15.7031 25.8672C15.4406 26.1844 15.7578 26.3594 16.5891 26.3594H17.3438V26.7422C17.3438 27.1031 17.3219 27.125 16.9719 27.125C16.2062 27.125 16.1734 27.8031 16.95 27.8687C17.2453 27.8906 17.3438 27.9563 17.3438 28.1094C17.3438 28.2625 17.2453 28.3281 16.95 28.35C16.3813 28.3938 16.2062 28.7 16.5781 29.0063L16.8516 29.2359L16.4688 29.1484C15.2875 28.9188 11.8969 27.7266 11.5031 27.4094C11.2516 27.2125 9.6875 19.1734 9.6875 18.0797V17.1828L10.9234 17.7625C11.5906 18.0797 12.7172 18.55 13.4062 18.8016ZM22.1562 17.5656L22.8125 17.8609L22.7906 19.8734L22.7578 21.8969L21.2922 22.7062C20.4937 23.1547 19.7937 23.5156 19.75 23.5156C19.6953 23.5156 19.225 23.1547 18.6891 22.7062C17.4859 21.6891 15.2437 19.425 15.5391 19.5125C15.6594 19.5453 16.1734 19.6766 16.6875 19.7969C18.6234 20.2891 18.4266 20.1688 18.4594 20.7594L18.4922 21.2734L19.3125 21.3063C20.275 21.35 20.4062 21.2406 20.4062 20.4313C20.4062 19.9391 20.4281 19.9062 20.6906 19.9062C21.0734 19.9062 21.3906 19.7203 21.3906 19.4906C21.3906 19.1953 21.1719 19.0312 20.7672 19.0312C20.2422 19.0312 20.3078 18.7687 20.8766 18.6375C21.2375 18.5609 21.3469 18.4844 21.3687 18.2766C21.4125 17.9594 21.2375 17.8281 20.7672 17.8281C20.4609 17.8281 20.4062 17.7953 20.4062 17.5547C20.4062 17.3031 20.4391 17.2812 20.9422 17.2812C21.2922 17.2812 21.7297 17.3906 22.1562 17.5656ZM24.1141 17.5547C23.8078 17.8719 23.4688 17.8281 23.4688 17.4891C23.4688 17.3141 23.5453 17.2812 23.9281 17.2812H24.3984L24.1141 17.5547ZM27.1328 18.0906C27.8547 18.7578 27.975 18.9109 27.8109 18.9766C27.6469 19.0422 25.6781 18.5281 24.7266 18.1562L24.3984 18.025L24.8359 17.6531C25.1969 17.3578 25.3609 17.2812 25.7656 17.2812C26.2359 17.2812 26.3125 17.3359 27.1328 18.0906ZM27.9531 17.6641C27.9531 17.8719 27.9422 18.0469 27.9203 18.0469C27.8984 18.0469 27.7234 17.8719 27.5156 17.6641L27.1437 17.2812H27.5484C27.9422 17.2812 27.9531 17.2922 27.9531 17.6641ZM31.4531 17.5547C31.4531 17.7953 31.4094 17.8281 31.0812 17.8281C30.3156 17.8281 30.2719 18.5391 31.0266 18.6594C31.5734 18.7469 31.6172 19.0312 31.0812 19.0312C30.6766 19.0312 30.4031 19.2609 30.5125 19.5344C30.5672 19.6766 30.5234 19.6984 30.3375 19.6547C30.1953 19.6219 29.7797 19.5344 29.4078 19.4578L28.7188 19.3156V18.2984V17.2812H30.0859H31.4531V17.5547ZM21.0953 18.2109C21.1172 18.3203 18.0875 18.4297 17.8031 18.3203C17.7266 18.2875 17.6938 18.2109 17.7266 18.1562C17.825 18.0031 21.0516 18.0578 21.0953 18.2109ZM34.0781 18.2109C34.0781 18.2766 33.4437 18.3312 32.4375 18.3531C30.9391 18.375 30.6547 18.3312 30.8734 18.1125C30.9937 17.9922 34.0781 18.0906 34.0781 18.2109ZM24.7484 18.5828C25.0328 18.6922 25.7547 18.9219 26.3453 19.0859C27.1109 19.3047 27.4062 19.4359 27.3625 19.5344C27.275 19.7531 25.7656 21.6562 25.6781 21.6562C25.6016 21.6453 23.6656 19.1844 23.5891 18.9984C23.5453 18.9 24.0047 18.375 24.1359 18.375C24.1906 18.375 24.4641 18.4625 24.7484 18.5828ZM9.30469 19.6C9.34844 19.7969 9.40312 20.0484 9.425 20.1469C9.47969 20.3328 9.3375 20.3438 7.62031 20.3438C6.59219 20.3438 5.75 20.3109 5.75 20.2781C5.75 20.2453 5.80469 20.0047 5.87031 19.7313L5.99062 19.25H7.60938H9.22812L9.30469 19.6ZM21.1172 19.4688C21.0734 19.5344 20.3844 19.5781 19.4109 19.5781C18.3937 19.5781 17.7812 19.5344 17.7812 19.4688C17.7812 19.4031 18.4266 19.3594 19.4875 19.3594C20.5922 19.3594 21.1609 19.3922 21.1172 19.4688ZM34.1875 19.4688C34.1875 19.5344 33.5531 19.5781 32.4922 19.5781C31.4312 19.5781 30.7969 19.5344 30.7969 19.4688C30.7969 19.4031 31.4312 19.3594 32.4922 19.3594C33.5531 19.3594 34.1875 19.4031 34.1875 19.4688ZM27.9312 23.3188L27.8984 24.5547L27.0016 23.4062C26.4984 22.7719 26.1156 22.1922 26.1484 22.1266C26.1703 22.05 26.575 21.5031 27.0453 20.9125L27.8984 19.8297L27.9312 20.9562C27.9422 21.5797 27.9422 22.6406 27.9312 23.3188ZM24.4531 21.0547L25.3391 22.1922L24.5516 23.2094C24.1141 23.7672 23.6984 24.3031 23.6109 24.3906C23.4906 24.5219 23.4688 24.1719 23.4688 22.225C23.4688 20.9453 23.4906 19.9062 23.5125 19.9062C23.5453 19.9062 23.9609 20.4203 24.4531 21.0547ZM8.15625 21.0984L7.55469 21.4156L7.00781 21.1422C6.7125 20.9891 6.43906 20.8469 6.41719 20.825C6.39531 20.8031 6.90937 20.7812 7.56562 20.7812L8.75781 20.7922L8.15625 21.0984ZM7.05156 21.6125C7.08437 21.6453 5.36719 22.5312 5.26875 22.5312C5.225 22.5312 5.47656 21.3172 5.58594 21.0219C5.61875 20.9234 5.82656 20.9781 6.31875 21.2297C6.70156 21.4156 7.02969 21.5906 7.05156 21.6125ZM9.6875 21.5141C9.75313 21.8641 9.84062 22.2359 9.8625 22.3344C9.89531 22.4438 9.89531 22.5312 9.85156 22.5312C9.81875 22.5312 9.39219 22.3234 8.9 22.0828L8.00312 21.6344L8.70312 21.2625C9.09688 21.0656 9.44687 20.9016 9.49062 20.8906C9.53438 20.8906 9.62187 21.175 9.6875 21.5141ZM8.70312 22.4219C9.70937 22.9359 9.73125 22.9578 9.44687 23.0672C9.28281 23.1328 8.79062 23.3297 8.35312 23.5156L7.56562 23.8547L6.63594 23.45C6.12187 23.2313 5.65156 23.0125 5.59687 22.9688C5.50938 22.8813 7.31406 21.8859 7.55469 21.8859C7.62031 21.8859 8.13437 22.1266 8.70312 22.4219ZM27.7453 25.2766C27.8547 25.4297 27.9203 25.5938 27.8766 25.6375C27.8438 25.6703 26.8594 25.7031 25.7 25.7031C24.1359 25.7031 23.5891 25.6703 23.5562 25.5719C23.5234 25.4953 23.9937 24.8062 24.5953 24.0406L25.6891 22.6516L26.6187 23.8219C27.1219 24.4672 27.625 25.1234 27.7453 25.2766ZM22.8125 24.1828V25.6156L22.4078 25.3641C21.5875 24.8719 20.3844 24.0406 20.4281 23.9969C20.5156 23.9203 22.6484 22.7609 22.7359 22.75C22.7797 22.75 22.8125 23.3953 22.8125 24.1828ZM31.4094 24.2375C32.8203 24.9922 33.9688 25.6375 33.9688 25.6594C33.9688 25.6812 32.7875 25.7031 31.3438 25.7031H28.7188V24.2812C28.7188 23.4938 28.7516 22.8594 28.7844 22.8594C28.8172 22.8594 29.9984 23.4828 31.4094 24.2375ZM5.84844 23.8328L6.29688 24.3687L5.50938 24.6969C5.07188 24.8828 4.7 25.0141 4.68906 25.0031C4.66719 24.9922 4.74375 24.5984 4.84219 24.1391C5.06094 23.1109 5.21406 23.0672 5.84844 23.8328ZM10.2016 24.0734C10.2891 24.4563 10.3328 24.8281 10.3219 24.8938C10.2891 25.0031 8.15625 24.1828 8.15625 24.0625C8.15625 23.975 9.84062 23.3078 9.96094 23.3406C10.0156 23.3516 10.125 23.6797 10.2016 24.0734ZM6.85469 23.9531C6.90937 23.9531 6.95312 23.9969 6.95312 24.0625C6.95312 24.2375 6.66875 24.1938 6.50469 23.9859C6.37344 23.8219 6.37344 23.8109 6.54844 23.8766C6.65781 23.9203 6.8 23.9531 6.85469 23.9531ZM8.75781 24.7844C9.425 25.0578 10.0047 25.3313 10.0594 25.375C10.1469 25.4625 9.25 25.9219 8.99844 25.9219C8.86719 25.9219 7.47813 24.8938 7.27031 24.6531C7.16094 24.5109 7.16094 24.4672 7.29219 24.3797C7.5 24.2484 7.42344 24.2266 8.75781 24.7844ZM21.0297 24.9594L22.0688 25.6484L20.9094 25.6812C20.275 25.6922 19.225 25.6922 18.5797 25.6812L17.3984 25.6484L18.6016 24.9813C19.2687 24.6094 19.8484 24.3031 19.9031 24.2922C19.9578 24.2812 20.4609 24.5875 21.0297 24.9594ZM7.13906 25.0797C7.36875 25.2766 7.77344 25.6047 8.025 25.8125C8.55 26.2063 8.55 26.2063 7.79531 26.5234C7.44531 26.6656 7.37969 26.6547 6.19844 26.0969C5.52031 25.7797 4.97344 25.4734 4.97344 25.4297C4.97344 25.3203 6.275 24.7406 6.5375 24.7297C6.64687 24.7188 6.92031 24.8828 7.13906 25.0797ZM6.7125 26.7641C6.77812 26.7969 6.84375 26.8516 6.84375 26.8953C6.84375 26.9719 4 28.2516 3.94531 28.1969C3.92344 28.175 4.03281 27.6172 4.18594 26.9391L4.47031 25.725L5.52031 26.2172C6.1 26.4906 6.63594 26.7313 6.7125 26.7641ZM10.7484 26.9828C10.6937 27.0375 9.46875 26.3375 9.46875 26.25C9.46875 26.2063 9.69844 26.0859 9.99375 25.9656L10.5078 25.7469L10.65 26.3375C10.7266 26.6656 10.7703 26.95 10.7484 26.9828ZM27.2969 26.425C27.2969 26.4578 27.1437 26.7094 26.9578 26.9719C26.6844 27.3656 26.575 27.4531 26.4 27.3875C25.9953 27.2672 24.3438 26.4797 24.3438 26.4141C24.3438 26.3813 25.0109 26.3594 25.8203 26.3594C26.6297 26.3594 27.2969 26.3922 27.2969 26.425ZM32.2188 26.6875C32.2188 26.9828 32.1859 27.0156 31.8578 27.0156C31.4859 27.0156 31.2344 27.1797 31.2344 27.4094C31.2344 27.65 31.5734 27.8906 31.9016 27.8906C32.1094 27.8906 32.2188 27.9453 32.2188 28.0547C32.2188 28.1641 32.1094 28.2188 31.9016 28.2188C31.3875 28.2188 31.0594 28.6562 31.3656 28.9625C31.5078 29.1047 31.2125 29.0391 29.6812 28.5797L28.7188 28.2953V27.3219V26.3594H30.4688H32.2188V26.6875ZM9.96094 27.0594C10.7922 27.5516 10.9453 27.6828 11.0109 27.9781C11.0547 28.175 11.0547 28.3281 11.0109 28.3281C10.8797 28.3281 8.04688 26.9719 8.04688 26.9062C8.04688 26.8297 8.70312 26.4797 8.86719 26.4797C8.93281 26.4797 9.41406 26.7422 9.96094 27.0594ZM24.4422 27.8359C24.9344 28.525 25.3281 29.1375 25.3281 29.2141C25.3281 29.2797 25 29.8156 24.5953 30.3953C23.3266 32.2219 23.4688 32.3641 23.4688 29.2688C23.4688 27.7922 23.4906 26.5781 23.5125 26.5781C23.5453 26.5781 23.9609 27.1469 24.4422 27.8359ZM27.9203 27.9563C27.8656 28.0219 27.1875 27.7703 27.1875 27.6938C27.1875 27.6609 27.3516 27.3984 27.5484 27.1141L27.8984 26.6L27.9312 27.2563C27.9531 27.6172 27.9422 27.9344 27.9203 27.9563ZM8.71406 27.7266L9.96094 28.3172H7.39062H4.82031L5.64062 27.9344C6.08906 27.7375 6.65781 27.4641 6.89844 27.3547C7.13906 27.2344 7.36875 27.1359 7.40156 27.1359C7.43437 27.125 8.025 27.3984 8.71406 27.7266ZM25.5141 27.4531C25.9187 27.6391 26.2687 27.8031 26.2906 27.825C26.3344 27.8797 25.8422 28.6562 25.7547 28.6562C25.7109 28.6562 24.9672 27.6391 24.7375 27.2563C24.6281 27.0703 24.6938 27.0813 25.5141 27.4531ZM19.9688 27.5078C19.9688 27.5734 19.3344 27.6281 18.3281 27.65C16.8297 27.6719 16.5453 27.6281 16.7641 27.4094C16.8844 27.2891 19.9688 27.3875 19.9688 27.5078ZM34.9531 27.4531C34.9531 27.5188 34.3187 27.5625 33.2578 27.5625C32.1969 27.5625 31.5625 27.5188 31.5625 27.4531C31.5625 27.3875 32.1969 27.3438 33.2578 27.3438C34.3187 27.3438 34.9531 27.3875 34.9531 27.4531ZM27.5156 28.2844L27.9531 28.4594V30.1656C27.9531 31.1063 27.9094 31.8281 27.8656 31.7625C27.8109 31.7078 27.3844 31.1063 26.925 30.4281L26.0828 29.2031L26.4766 28.6562C26.6953 28.35 26.925 28.1094 26.9797 28.1094C27.0344 28.1094 27.275 28.1859 27.5156 28.2844ZM20.0562 28.7328C20.0891 28.8422 19.7062 28.875 18.3937 28.875C16.8297 28.875 16.5453 28.8313 16.7641 28.6125C16.8078 28.5797 17.5516 28.5578 18.4266 28.5688C19.5641 28.5906 20.0234 28.6344 20.0562 28.7328ZM34.9531 28.6562C34.9531 28.7219 34.3187 28.7656 33.2578 28.7656C32.1969 28.7656 31.5625 28.7219 31.5625 28.6562C31.5625 28.5906 32.1969 28.5469 33.2578 28.5469C34.3187 28.5469 34.9531 28.5906 34.9531 28.6562ZM5.62969 29.6625C5.32344 30.1 4.50312 31.2812 3.80312 32.2875L2.52344 34.125H2.00937C1.71406 34.125 1.48438 34.0922 1.48438 34.0484C1.48438 34.0047 1.9875 32.8234 2.6 31.4234L3.70469 28.875H4.95156H6.19844L5.62969 29.6625ZM12.225 31.1719C12.7609 32.4078 13.275 33.5781 13.3516 33.7641L13.5047 34.125H12.9359H12.3562L10.6172 31.5984C9.65469 30.2094 8.84531 29.0281 8.83437 28.9734C8.8125 28.9078 9.29375 28.875 10.0156 28.8969L11.2516 28.9297L12.225 31.1719ZM32.1422 29.1703C32.0656 29.1922 31.9125 29.1922 31.8141 29.1703C31.7047 29.1375 31.7703 29.1156 31.9453 29.1156C32.1312 29.1156 32.2078 29.1375 32.1422 29.1703ZM17.2672 29.2797C17.1906 29.3016 17.0594 29.3016 16.9937 29.2797C16.9172 29.2469 16.9719 29.225 17.125 29.225C17.2781 29.225 17.3328 29.2469 17.2672 29.2797ZM27.0125 31.5219L27.9641 32.9219H25.7219H23.4688L23.8297 32.4516C24.0156 32.1891 24.5297 31.4781 24.9453 30.8656C25.8422 29.5641 25.6234 29.4984 27.0125 31.5219ZM28.0516 33.8297C28.1062 33.9719 28.1828 34.3219 28.2266 34.5953L28.3031 35.1094H25.6781H23.0531L23.2062 34.475C23.2937 34.1359 23.3922 33.7859 23.4141 33.7094C23.4469 33.6109 24.0047 33.5781 25.7109 33.5781H27.9531L28.0516 33.8297ZM27.4062 35.7109C27.4062 35.7437 27.0234 35.9516 26.5641 36.1812L25.7219 36.6078L24.8687 36.2141C24.4094 35.9953 24.0266 35.7875 24.0156 35.7328C24.0156 35.6891 24.7812 35.6562 25.7109 35.6562C26.6406 35.6562 27.4062 35.6781 27.4062 35.7109ZM24.9891 36.925C25.0109 36.9469 24.4531 37.2422 23.7531 37.5813C23.0422 37.9094 22.4406 38.1719 22.4187 38.1391C22.375 38.0953 22.7469 36.3563 22.8672 36.0063C22.9 35.9078 23.2172 36.0172 23.9281 36.3781C24.4859 36.6516 24.9672 36.9031 24.9891 36.925ZM28.5 35.9188C28.5 35.9406 28.5984 36.4438 28.7188 37.0234C28.8391 37.6141 28.9156 38.1172 28.8937 38.1391C28.8719 38.1609 28.2812 37.8984 27.5812 37.5484L26.3125 36.9141L27.3188 36.4C28.2922 35.9078 28.5 35.8203 28.5 35.9188ZM27.2531 38.0188L28.7734 38.7406L28.3906 38.9047C28.1828 38.9922 27.4719 39.2875 26.8156 39.55L25.6344 40.0422L24.3 39.4734C23.5781 39.1672 22.9109 38.8719 22.8234 38.8281C22.7141 38.7625 23.0969 38.5219 24.0812 38.0297C24.8578 37.6359 25.5469 37.3078 25.6125 37.3078C25.6781 37.2969 26.4219 37.625 27.2531 38.0188ZM24.3766 40.1078C24.5953 40.1953 24.7812 40.3047 24.7812 40.3484C24.7812 40.4141 21.8062 41.6719 21.6313 41.6719C21.5547 41.6719 21.9047 39.8781 22.1016 39.2984C22.1344 39.2 22.4187 39.2766 23.0531 39.55C23.5562 39.7688 24.1469 40.0203 24.3766 40.1078ZM29.2 39.4516C29.3422 39.9547 29.6156 41.5734 29.5609 41.6281C29.4953 41.6938 26.5312 40.4469 26.5312 40.3484C26.5312 40.2719 28.8062 39.2875 29.0141 39.2766C29.0797 39.2656 29.1672 39.3531 29.2 39.4516ZM27.5703 41.4641C28.5656 41.9016 29.3641 42.2625 29.3422 42.2844C29.3203 42.3063 28.4453 42.7109 27.3953 43.1813L25.4922 44.0453L24.4531 43.5531C23.8844 43.2906 23.0531 42.8969 22.6047 42.7C22.1672 42.4922 21.8281 42.2953 21.8609 42.2625C21.9484 42.175 25.4812 40.6984 25.6234 40.6875C25.6891 40.6875 26.5641 41.0375 27.5703 41.4641ZM23.1406 43.5641L24.8031 44.3516L22.6922 45.3031C21.5328 45.8281 20.5594 46.2438 20.5375 46.2109C20.5156 46.1891 20.6469 45.4891 20.8438 44.6578C21.2703 42.7766 21.2812 42.7656 21.3797 42.7656C21.4344 42.7656 22.2219 43.1266 23.1406 43.5641ZM30.2391 44.5266C30.4359 45.4891 30.5672 46.3094 30.5344 46.3422C30.4797 46.3969 26.5094 44.5922 26.2797 44.4062C26.2031 44.3406 29.5172 42.7875 29.7687 42.7656C29.8234 42.7656 30.0422 43.5531 30.2391 44.5266ZM28.9922 46.3859C29.0469 46.4406 27.7125 46.4844 25.3828 46.4844C23.0859 46.4844 21.7188 46.4406 21.7734 46.3859C21.8391 46.3313 22.6922 45.9156 23.6875 45.4672L25.4922 44.6578L27.1875 45.4672C28.1172 45.9156 28.9266 46.3203 28.9922 46.3859ZM23.6109 47.2937C23.5672 47.3703 22.3969 49.0438 21.0187 51.0125L18.5031 54.5781H17.7484C17.0703 54.5781 17.0047 54.5562 17.0703 54.3813C17.1031 54.2828 17.8359 52.6094 18.6781 50.6625L20.2203 47.1406H21.9594C23.3922 47.1406 23.6875 47.1625 23.6109 47.2937ZM31.4859 48.6719C31.8469 49.4813 32.5687 51.1438 33.0938 52.3578L34.0562 54.5781H33.2578H32.4594L29.8781 50.8594L27.3078 47.1406L29.0688 47.1625L30.8406 47.1953L31.4859 48.6719Z" fill="#00A4FF"/>
</svg>
