<svg width="136" height="48" viewBox="0 0 136 48" fill="none" xmlns="http://www.w3.org/2000/svg">
<path d="M40.0449 16.3969C39.4897 16.3996 38.942 16.5258 38.4416 16.7665C38.0398 15.5572 37.3557 14.461 36.4462 13.5685C34.305 11.3996 30.9457 10.4747 27.4563 11.849C25.499 12.6159 23.8332 14.5992 23.0923 16.7075C22.222 16.3002 21.227 16.249 20.3195 16.5647C19.4119 16.8804 18.6635 17.538 18.2338 18.3975C17.9934 18.901 17.8672 19.4515 17.8643 20.0095V39.2699H43.7183V20.0459C43.719 19.5645 43.6243 19.0877 43.4396 18.643C43.255 18.1984 42.984 17.7948 42.6425 17.4555C42.3009 17.1162 41.8955 16.8479 41.4496 16.6662C41.0038 16.4845 40.5264 16.393 40.0449 16.3969ZM23.4914 23.2994C23.0027 23.2999 22.529 23.1311 22.1506 22.8218C21.7723 22.5125 21.5127 22.0818 21.416 21.6028C21.3193 21.1237 21.3914 20.626 21.6201 20.1942C21.8489 19.7623 22.2201 19.423 22.6707 19.2339V20.9951C22.6714 21.1012 22.6982 21.2054 22.7488 21.2987C22.8069 21.4478 22.9154 21.5718 23.0554 21.6493C23.1954 21.7268 23.3581 21.7529 23.5153 21.723C23.6725 21.6932 23.8143 21.6092 23.9161 21.4858C24.0179 21.3623 24.0733 21.2071 24.0727 21.0471V20.4745L24.0467 20.4502V19.5497C24.0467 19.4178 24.0467 19.2859 24.0588 19.1541C24.552 19.2903 24.9791 19.601 25.2606 20.0282C25.5422 20.4555 25.6592 20.9704 25.5899 21.4774C25.5206 21.9844 25.2697 22.449 24.8838 22.785C24.4978 23.1211 24.0031 23.3057 23.4914 23.3046V23.2994ZM24.359 17.5872L24.3312 17.5664C25.0982 14.8682 27.425 12.779 30.3349 12.5951H30.7305C32.2136 12.5939 33.6557 13.0815 34.8338 13.9823C36.0119 14.8831 36.8603 16.147 37.2478 17.5785L30.8104 22.5376L24.359 17.5872ZM38.2941 23.2994C37.8062 23.2989 37.3334 23.1298 36.9559 22.8206C36.5784 22.5114 36.3195 22.0812 36.2229 21.6029C36.1263 21.1247 36.198 20.6277 36.4259 20.1962C36.6538 19.7648 37.0239 19.4254 37.4734 19.2356V21.0246C37.497 21.19 37.5795 21.3414 37.7057 21.4509C37.8319 21.5604 37.9934 21.6207 38.1605 21.6207C38.3277 21.6207 38.4892 21.5604 38.6154 21.4509C38.7416 21.3414 38.8241 21.19 38.8477 21.0246V19.3067V19.1436C39.3493 19.2717 39.7866 19.5794 40.0766 20.0083C40.3666 20.4372 40.4893 20.9576 40.4213 21.4709C40.3532 21.9842 40.0993 22.4547 39.7076 22.7933C39.3159 23.1319 38.8136 23.315 38.2959 23.3081L38.2941 23.2994ZM117.26 29.3239C116.822 29.5977 116.362 29.8362 115.886 30.037C115.427 30.2401 114.933 30.3481 114.432 30.3546C114.266 30.3577 114.103 30.3214 113.954 30.2487C113.791 30.1903 113.651 30.0785 113.559 29.9312C113.42 29.7515 113.321 29.5446 113.267 29.3239C113.185 29.0222 113.149 28.7098 113.162 28.3973C113.166 28.1226 113.193 27.8488 113.241 27.5783C113.293 27.2602 113.373 26.8368 113.479 26.3082C113.585 25.8067 113.665 25.3833 113.717 25.0658C113.763 24.8214 113.79 24.5736 113.797 24.3249C113.796 24.1154 113.751 23.9084 113.665 23.7176C113.596 23.5367 113.475 23.3803 113.318 23.2681C113.171 23.14 113 23.0411 112.816 22.9766C112.632 22.9008 112.434 22.8647 112.235 22.8708C111.698 22.8614 111.171 23.0184 110.727 23.3202C110.283 23.637 109.89 24.0203 109.563 24.4567C109.176 24.9837 108.848 25.5516 108.586 26.1503C108.268 26.8443 108.003 27.3649 107.791 27.79H107.607C107.587 27.1724 107.604 26.5541 107.659 25.9386C107.713 25.2237 107.739 24.6684 107.739 24.2988C107.746 24.0429 107.737 23.7868 107.713 23.5319C107.709 23.381 107.663 23.2343 107.579 23.1085C107.538 23.0553 107.485 23.0114 107.425 22.9798C107.366 22.9481 107.3 22.9293 107.232 22.9246C107.022 22.8989 106.811 22.8896 106.599 22.8968C106.396 22.8902 106.192 22.8995 105.99 22.9246C105.847 22.9442 105.71 22.9984 105.593 23.0825C105.477 23.1691 105.379 23.2768 105.303 23.4C105.204 23.5759 105.124 23.7621 105.065 23.9553C104.906 24.3876 104.774 24.8291 104.668 25.2775C104.536 25.8061 104.378 26.4672 104.192 27.2608C104.007 28.0537 103.845 28.8224 103.743 29.5165C103.609 30.2314 103.531 30.9185 103.425 31.5796C103.425 31.6855 103.399 31.7653 103.399 31.8711C103.188 32.055 102.948 32.2181 102.705 32.3917C102.115 32.8281 101.497 33.2257 100.856 33.582C100.201 33.9388 99.523 34.2495 98.8255 34.512C98.1904 34.7425 97.5213 34.8657 96.8457 34.8764C96.6594 34.8749 96.4736 34.8569 96.2905 34.8226C96.1106 34.7863 95.9396 34.715 95.7873 34.6127C95.6104 34.4936 95.4505 34.3512 95.3118 34.1893C95.1347 33.9713 94.9756 33.7392 94.8364 33.4952C95.7234 33.2624 96.5767 32.916 97.3749 32.4645C98.8579 31.6598 100.071 30.4366 100.864 28.9474C101.288 28.1544 101.499 27.4673 101.499 26.8322C101.507 26.2781 101.399 25.7285 101.182 25.2185C100.986 24.7545 100.69 24.3397 100.314 24.0039C99.9403 23.6555 99.5001 23.3859 99.0199 23.2109C98.4953 23.0161 97.9397 22.9179 97.3801 22.9211C96.7099 22.9161 96.0451 23.0416 95.4229 23.2907C94.8399 23.5423 94.3037 23.8908 93.8369 24.3214C93.3604 24.76 92.9423 25.258 92.5928 25.8032C92.23 26.3617 91.9341 26.961 91.7113 27.5887C91.4719 28.196 91.2602 28.9109 91.0173 29.7039C90.8236 30.3752 90.7169 31.0685 90.6997 31.767C90.7072 32.2447 90.7425 32.7215 90.8056 33.195C90.7796 33.2211 90.7535 33.2211 90.7275 33.2471C90.436 33.4328 90.1445 33.6167 89.827 33.8024C89.536 33.9767 89.236 34.1354 88.9281 34.2778C88.6384 34.4114 88.3468 34.5433 88.1091 34.6248C87.8847 34.6996 87.6513 34.744 87.4151 34.7567C87.3587 34.7507 87.3048 34.7306 87.2584 34.6981C87.212 34.6656 87.1745 34.6219 87.1496 34.571C87.041 34.4249 86.9523 34.265 86.8858 34.0956C86.7987 33.8696 86.728 33.6377 86.6741 33.4015C86.621 33.14 86.5943 32.8737 86.5943 32.6068V32.3951C86.6258 32.1816 86.6698 31.9701 86.7262 31.7618C86.78 31.5501 86.832 31.3384 86.8858 31.1267C86.9396 30.915 86.9917 30.7571 87.0437 30.5715C87.088 30.4271 87.1413 30.2857 87.2034 30.1481C87.6788 29.1955 88.208 28.2394 88.7893 27.2399C89.3706 26.2405 89.9258 25.2289 90.4811 24.2242C91.0364 23.1935 91.5934 22.1628 92.0948 21.1304C92.6141 20.1277 93.0793 19.0979 93.4882 18.0453C93.8769 17.0374 94.1946 16.0037 94.439 14.9515C94.6688 13.9632 94.7852 12.9521 94.7861 11.9375C94.7916 11.5467 94.7562 11.1565 94.6802 10.7732C94.603 10.4125 94.4799 10.0633 94.3141 9.73382C94.1301 9.43099 93.876 9.17687 93.5732 8.9929C93.2069 8.80067 92.796 8.70963 92.3829 8.72916C91.689 8.73277 91.0105 8.93443 90.4273 9.31044C89.7308 9.72891 89.1058 10.2561 88.5759 10.8721C87.9386 11.6016 87.3722 12.39 86.8841 13.2267C86.6186 13.6761 86.3549 14.1255 86.1172 14.601C86.303 13.7228 86.4001 12.8281 86.4069 11.9305C86.4125 11.5398 86.377 11.1496 86.3011 10.7662C86.222 10.4084 86.0978 10.0621 85.9315 9.73555C85.7475 9.43273 85.4934 9.17861 85.1906 8.99464C84.8243 8.80241 84.4134 8.71136 84.0003 8.73089C83.3064 8.7345 82.6279 8.93617 82.0447 9.31217C81.3482 9.73065 80.7232 10.2579 80.1933 10.8738C79.5564 11.603 78.99 12.3908 78.5015 13.2267C77.9496 14.1571 77.4548 15.1202 77.0197 16.1106C76.4611 17.441 76.0018 18.8109 75.6454 20.209C75.196 21.9269 74.9513 22.7736 74.9513 22.7736C74.9513 22.7736 74.7934 23.6204 74.5019 25.3382C74.2104 27.056 74.0525 28.406 74.0525 29.4384C74.0535 30.3937 74.1242 31.3477 74.2642 32.2928C74.2157 32.322 74.1714 32.3576 74.1323 32.3986C73.5407 32.8344 72.921 33.2308 72.2774 33.5855C71.6212 33.941 70.9412 34.2506 70.2421 34.512C69.6063 34.7424 68.9367 34.8656 68.2605 34.8764C68.0742 34.8749 67.8884 34.8569 67.7053 34.8226C67.5253 34.7866 67.3543 34.7152 67.2021 34.6127C67.0249 34.4941 66.8649 34.3516 66.7266 34.1893C66.5489 33.9714 66.3893 33.7392 66.2495 33.4952C67.1371 33.2624 67.9909 32.916 68.7898 32.4645C70.2706 31.6623 71.4833 30.4429 72.2774 28.9578C72.7008 28.1648 72.9125 27.4777 72.9125 26.8426C72.9199 26.2885 72.8117 25.7389 72.595 25.2289C72.3984 24.7652 72.1022 24.3505 71.7274 24.0143C71.3531 23.6654 70.9122 23.3957 70.4312 23.2213C69.9071 23.0271 69.3522 22.929 68.7932 22.9315C68.123 22.9265 67.4582 23.052 66.836 23.3011C66.2524 23.5527 65.7156 23.9012 65.2483 24.3318C64.7723 24.7704 64.3548 25.2685 64.0059 25.8136C63.6489 26.3685 63.3578 26.963 63.1383 27.5852C62.9006 28.1926 62.6889 28.9074 62.4442 29.7004C62.2506 30.3717 62.1438 31.0651 62.1267 31.7635C62.1267 32.1106 62.1527 32.4576 62.1805 32.7942L61.3858 33.1916C60.9104 33.4033 60.4609 33.6132 60.0376 33.8249C59.6151 34.024 59.209 34.2561 58.8229 34.519C58.8229 33.8579 58.849 33.169 58.9028 32.5079C58.963 31.9885 58.9543 31.4634 58.8767 30.9463C58.7969 30.5767 58.7171 30.2331 58.6373 29.9416C58.5575 29.6501 58.4794 29.3864 58.3996 29.1226C58.3197 28.8589 58.2677 28.5934 58.2156 28.3279C58.1588 28.0317 58.132 27.7306 58.1358 27.4291C58.2253 27.234 58.3507 27.0574 58.5054 26.9085C58.7171 26.6691 58.9548 26.4053 59.1995 26.1138C59.4441 25.8223 59.6506 25.5325 59.8606 25.2462C60.0316 24.9957 60.1323 24.7039 60.1521 24.4012C60.155 24.251 60.1463 24.1007 60.1261 23.9518C60.095 23.7701 60.0226 23.5979 59.9144 23.4486C59.7574 23.2695 59.5573 23.1333 59.3331 23.053C58.9576 22.9309 58.5633 22.8768 58.1688 22.8933C57.8906 22.8947 57.6143 22.9392 57.3498 23.0252C57.114 23.1087 56.8913 23.2256 56.6887 23.3723C56.4804 23.5021 56.2931 23.663 56.1334 23.8494C55.9738 24.0334 55.8159 24.219 55.684 24.4047C55.0229 25.2497 54.4694 25.9386 54.0443 26.5198C53.6209 27.0751 53.2773 27.5505 52.9858 27.9479C52.6943 28.3453 52.4306 28.6888 52.2189 28.9526C52.0072 29.2441 51.7174 29.6137 51.3513 30.0631C50.9852 30.5125 50.6121 30.9098 50.2668 31.2534C49.9215 31.597 49.4218 32.0203 48.8388 32.5218C48.7195 32.6249 48.5905 32.7161 48.4536 32.7942C48.2734 32.9288 48.1055 33.0792 47.9521 33.2436C47.7814 33.4207 47.6302 33.6156 47.501 33.8249C47.3726 34.0407 47.3087 34.2888 47.317 34.5398C47.302 34.7653 47.3382 34.9914 47.4229 35.2009C47.4724 35.3343 47.5541 35.4535 47.6606 35.5479C47.7689 35.6227 47.8987 35.6598 48.0302 35.6538C48.1898 35.6538 48.3217 35.6798 48.5074 35.6798C48.6484 35.6833 48.7895 35.6746 48.929 35.6538C49.0886 35.6278 49.2205 35.6278 49.3524 35.6C49.3933 36.0873 49.5471 36.5585 49.8018 36.976C50.0536 37.3545 50.3883 37.6708 50.7804 37.9008C51.22 38.1415 51.6923 38.3169 52.1824 38.4214C52.749 38.5307 53.325 38.5841 53.902 38.581C54.8167 38.5703 55.7283 38.4727 56.6245 38.2895C57.5843 38.0989 58.5298 37.8426 59.4545 37.5226C60.3682 37.2117 61.2603 36.8408 62.125 36.4121C62.489 36.2395 62.8424 36.0454 63.1834 35.8308C63.3072 36.0435 63.447 36.2465 63.6016 36.4381C64.0917 37.0545 64.7152 37.5516 65.4253 37.8922C66.2272 38.2651 67.1059 38.4435 67.9898 38.4127C68.6147 38.4135 69.2378 38.3466 69.8482 38.2132C70.4546 38.0717 71.0474 37.8772 71.6198 37.6319C72.1751 37.3942 72.7303 37.1113 73.2596 36.8111C73.7888 36.511 74.2642 36.1778 74.7136 35.8603C74.8455 35.7544 74.9791 35.6486 75.137 35.5427C75.163 35.6226 75.1908 35.6746 75.2168 35.7544C75.5864 36.5734 75.9838 37.2345 76.4852 37.7117C76.9867 38.1889 77.4899 38.4509 78.0469 38.4509C78.4384 38.445 78.8283 38.4008 79.2112 38.319C79.6346 38.2132 80.0579 38.1073 80.5074 37.9494C80.9571 37.7866 81.3984 37.6013 81.8296 37.3942C82.2529 37.1825 82.6746 36.9968 83.098 36.7851C83.3634 36.6532 83.6532 36.4953 83.9187 36.3357C84.1806 36.8512 84.5194 37.324 84.9234 37.7377C85.3988 38.2132 85.928 38.4786 86.485 38.4786C86.8765 38.472 87.2665 38.4273 87.6493 38.345C88.071 38.2392 88.4943 38.1351 88.9437 37.9754C89.3938 37.8133 89.8351 37.628 90.2659 37.4202C90.6893 37.2085 91.1127 37.0228 91.5361 36.8129L92.2492 36.4155C92.277 36.4415 92.277 36.4676 92.303 36.4953C92.7945 37.1104 93.4177 37.6073 94.1267 37.9494C94.9296 38.3216 95.8086 38.4999 96.693 38.47C97.3154 38.4662 97.9356 38.3952 98.5427 38.2583C99.1494 38.117 99.7423 37.9219 100.314 37.6753C100.87 37.4375 101.427 37.1547 101.954 36.8563C102.431 36.5647 102.881 36.275 103.276 35.9887C103.276 36.1483 103.304 36.2802 103.304 36.4381C103.34 36.8047 103.438 37.1625 103.594 37.4965C103.72 37.7974 103.932 38.0545 104.203 38.2357C104.511 38.429 104.871 38.5218 105.234 38.5012C105.416 38.5073 105.597 38.471 105.763 38.3954C105.93 38.3048 106.082 38.1876 106.212 38.0483C106.372 37.846 106.506 37.6238 106.61 37.3872C106.741 37.1217 106.873 36.7782 107.031 36.3826L109.835 28.5743H110.073C110.153 29.2354 110.259 29.8705 110.39 30.5316C110.514 31.1419 110.728 31.7303 111.026 32.2771C111.296 32.779 111.686 33.2059 112.162 33.5195C112.637 33.8376 113.274 33.9961 114.071 33.995C114.51 34.0007 114.947 33.9381 115.367 33.8093C115.782 33.6787 116.188 33.5198 116.582 33.3339C116.963 33.1529 117.334 32.9502 117.692 32.7266C118.039 32.5149 118.353 32.3032 118.617 32.1435L118.856 28.4997C118.213 28.694 117.739 29.0376 117.26 29.3239ZM55.2242 34.4583C55.162 34.738 55.0548 35.0058 54.9067 35.2512C54.7466 35.4882 54.5278 35.6795 54.2716 35.8065C53.9617 35.9657 53.6147 36.0389 53.2669 36.0182C52.951 36.0242 52.6397 35.9419 52.3681 35.7805C52.116 35.6331 51.8829 35.4554 51.674 35.2512L51.1535 34.7307C51.0489 34.5991 50.8969 34.5137 50.7301 34.493L55.068 29.9451C55.1218 30.103 55.1739 30.3147 55.2537 30.5541C55.331 30.8837 55.3398 31.2256 55.2797 31.5588C55.2333 31.9271 55.2246 32.2992 55.2537 32.6693C55.2797 32.9591 55.3058 33.2506 55.3058 33.5369C55.316 33.8462 55.2886 34.1556 55.2242 34.4583ZM65.9059 30.0943C65.9484 29.6782 66.0465 29.2697 66.1974 28.8797C66.3831 28.4042 66.5149 27.9809 66.6468 27.6373C66.7649 27.3069 66.9444 27.002 67.176 26.7385C67.3912 26.4718 67.6618 26.2551 67.969 26.1034C68.3338 25.9362 68.7321 25.8548 69.1333 25.8657C69.3971 25.8657 69.6088 26.0253 69.7667 26.3151C69.9627 26.6611 70.0549 27.0563 70.0321 27.4534C70.0321 27.7692 69.8465 28.1926 69.4769 28.6958C69.1605 29.1395 68.7871 29.5397 68.3664 29.8861C67.9859 30.1791 67.5674 30.419 67.1223 30.5992C66.7316 30.7779 66.3092 30.877 65.8799 30.8907C65.8799 30.6773 65.8799 30.4118 65.9059 30.0943ZM78.4946 22.2409C78.7843 20.8406 78.9162 20.1257 78.9162 20.1257C78.9162 20.1257 79.1557 19.3588 79.6103 17.8509C80.0649 16.3431 80.4553 15.2343 80.7989 14.5541C81.067 13.9776 81.405 13.4362 81.8053 12.9421C82.1523 12.5448 82.4386 12.3609 82.7301 12.3609C82.8099 12.3609 82.862 12.4667 82.862 12.6767C82.8855 12.9409 82.8942 13.2062 82.888 13.4714C82.7666 14.5213 82.5452 15.5573 82.2269 16.5652C81.8813 17.6964 81.4758 18.8085 81.0123 19.8967C80.5369 21.0072 80.0348 22.0911 79.5062 23.1484C78.9769 24.2069 78.4737 25.1595 77.9983 25.9785C78.079 24.7228 78.2448 23.4741 78.4946 22.2409ZM81.4548 33.7711C81.1638 33.9455 80.8638 34.1042 80.5559 34.2466C80.2662 34.3784 79.9747 34.512 79.7369 34.5936C79.5127 34.6692 79.2792 34.7136 79.0429 34.7255C78.9867 34.7198 78.9328 34.7 78.8864 34.6678C78.8399 34.6357 78.8024 34.5922 78.7774 34.5415C78.6718 34.3934 78.5866 34.2317 78.5241 34.0609C78.4367 33.835 78.3659 33.603 78.3124 33.3668C78.2592 33.1059 78.2325 32.8402 78.2325 32.5739V32.3622C78.264 32.1481 78.308 31.936 78.3644 31.7271L78.5241 31.0938C78.5761 30.8821 78.6299 30.7224 78.682 30.5385C78.7262 30.3941 78.7795 30.2527 78.8416 30.1151C79.317 29.1625 79.8463 28.2064 80.4275 27.2052C81.0088 26.2283 81.5641 25.1959 82.1193 24.1913C82.6746 23.1606 83.2298 22.1281 83.733 21.0974C83.7591 21.0176 83.8129 20.9656 83.8389 20.8858C83.5213 22.1004 83.3357 22.7372 83.3357 22.7372C83.3357 22.7372 83.1778 23.5822 82.8863 25.3018C82.5948 27.0213 82.4369 28.3695 82.4369 29.4002C82.4372 30.5436 82.5347 31.6848 82.7284 32.8116C82.7343 32.856 82.743 32.9001 82.7544 32.9434C82.6225 33.0233 82.4907 33.1291 82.3588 33.2089C82.0638 33.3998 81.7723 33.5855 81.4548 33.7711ZM86.9032 22.2409C87.193 20.8406 87.3266 20.1257 87.3266 20.1257C87.3266 20.1257 87.5643 19.3588 88.0206 17.8509C88.477 16.3431 88.8674 15.2343 89.211 14.5541C89.4785 13.9777 89.8159 13.4363 90.2156 12.9421C90.5627 12.5448 90.8507 12.3609 91.1405 12.3609C91.2203 12.3609 91.2723 12.4667 91.2723 12.6767C91.2975 12.9408 91.3067 13.2062 91.3001 13.4714C91.1778 14.5212 90.9565 15.5571 90.639 16.5652C90.2926 17.6961 89.8872 18.8082 89.4244 19.8967C88.9478 21.0072 88.4452 22.0911 87.9165 23.1484C87.3873 24.2069 86.8858 25.1595 86.4087 25.9785C86.4897 24.723 86.6549 23.4743 86.9032 22.2409ZM94.5189 30.0943C94.5605 29.6781 94.6586 29.2695 94.8104 28.8797C94.9943 28.4042 95.1262 27.9809 95.2598 27.6373C95.3752 27.3076 95.5518 27.0027 95.7803 26.7385C95.9961 26.4717 96.2672 26.255 96.575 26.1034C96.9391 25.9357 97.3369 25.8544 97.7376 25.8657C98.0031 25.8657 98.213 26.0253 98.3727 26.3151C98.5682 26.6613 98.6597 27.0565 98.6364 27.4534C98.6364 27.7692 98.4525 28.1926 98.0812 28.6958C97.7657 29.1403 97.3922 29.5406 96.9706 29.8861C96.5908 30.1791 96.1728 30.419 95.7283 30.5992C95.3377 30.7757 94.916 30.873 94.4876 30.8855C94.4876 30.6773 94.5189 30.4118 94.5189 30.0943Z" fill="#122E76"/>
</svg>
