<svg width="56" height="56" viewBox="0 0 56 56" fill="none" xmlns="http://www.w3.org/2000/svg">
<path d="M19.8414 3.60958C15.893 4.05801 12.6227 5.62207 9.89922 8.35645C8.01797 10.2377 6.95703 11.9111 6.13672 14.2518C5.51328 16.0346 5.32734 17.2158 5.31641 19.4143C5.31641 21.5908 5.46953 22.6846 6.03828 24.4455C6.72734 26.6002 7.60234 28.0221 10.0742 31.0518C11.2445 32.4955 12.0758 34.2893 12.5352 36.3674C12.6883 37.0783 12.743 38.0299 12.7977 41.3986C12.8633 45.5221 12.8961 45.8283 13.2898 46.6049C13.9898 47.9721 15.6523 49.0002 17.1727 49.0002H17.6867L17.818 49.6236C18.157 51.3189 19.4477 52.4127 21.1648 52.4346C21.6352 52.4346 22.1492 52.3689 22.4992 52.2486C23.593 51.8658 24.5227 50.7283 24.6758 49.5471L24.7414 49.033L25.5617 48.9674C27.1258 48.8471 28.5477 47.8955 29.2367 46.4955L29.5867 45.7846L29.6523 41.6174C29.718 37.0893 29.7727 36.6627 30.4289 34.8033C31.0414 33.0533 31.7633 31.8283 33.2289 30.0783C33.6992 29.5096 34.1477 28.9299 34.2133 28.7986C34.5523 28.1752 34.1695 27.4533 33.5023 27.4533C33.218 27.4533 33.043 27.5846 32.518 28.1533C30.1008 30.8002 28.307 34.4643 28.0336 37.3189L27.968 38.0627H21.2633H14.5477L14.5039 37.8111C14.482 37.6799 14.3945 37.1549 14.3289 36.6518C13.957 33.983 12.732 31.3799 10.8398 29.2252C8.84922 26.9611 7.83203 24.9924 7.25234 22.3127C6.97891 21.0221 6.98984 18.3643 7.26328 17.008C8.41172 11.4627 12.3273 7.15332 17.5117 5.75333C19.9508 5.09708 22.3242 5.08614 24.8508 5.73145C26.9945 6.27832 28.9195 7.32832 30.8445 8.99083C31.457 9.51582 32.0477 9.95332 32.157 9.95332C32.5289 9.95332 33.032 9.41739 33.032 9.04551C33.032 8.7502 32.8789 8.54239 32.0805 7.76582C30.0242 5.76426 27.093 4.27676 24.2273 3.77364C23.0242 3.56583 20.8914 3.47832 19.8414 3.60958ZM27.8914 41.2346V42.6564H26.907C25.9992 42.6564 25.8898 42.6783 25.6492 42.9299C25.2883 43.2799 25.2883 43.783 25.6492 44.133C25.8898 44.3846 25.9992 44.4064 26.918 44.4064H27.9242L27.8695 44.9533C27.793 45.6971 27.3117 46.4518 26.6445 46.8674L26.1086 47.1955L21.4492 47.2283C17.3148 47.2611 16.7352 47.2393 16.3086 47.0752C15.368 46.7143 14.7227 45.8939 14.5805 44.8986L14.5148 44.4064H18.3539C21.9414 44.4064 22.193 44.3955 22.4336 44.1986C22.6305 44.0455 22.6961 43.8814 22.6961 43.5314C22.6961 43.1814 22.6305 43.0174 22.4336 42.8643C22.193 42.6674 21.9414 42.6564 18.3648 42.6564H14.5477V41.2346V39.8127H21.2195H27.8914V41.2346ZM22.9695 49.2627C22.9695 49.5689 22.5867 50.1596 22.182 50.4549C22.018 50.5752 21.657 50.6955 21.3617 50.7174C20.4867 50.783 19.743 50.2143 19.5242 49.2955L19.4477 49.0002H21.2086H22.9695V49.2627Z" fill="#00A4FF"/>
<path d="M41.3783 4.15625C40.1314 4.77969 39.4314 5.91719 39.4314 7.32812C39.4314 7.90781 39.4971 8.29063 39.6392 8.61875L39.858 9.08906L38.108 10.8391L36.3689 12.5781H32.4533H28.5377L28.2752 12.8516C27.9142 13.2125 27.9252 13.6172 28.3189 14.0109L28.6361 14.3281H32.8252H37.0142L39.0158 12.3375L41.0174 10.3469L41.5861 10.5547C43.2486 11.1672 45.1846 10.4125 46.0267 8.80469C46.2783 8.33437 46.3221 8.12656 46.3221 7.32812C46.3221 6.52969 46.2783 6.31094 46.0158 5.775C45.6767 5.09688 45.097 4.50625 44.3861 4.14531C44.0361 3.95938 43.6642 3.88281 42.9861 3.85C42.1221 3.81719 42.0127 3.82812 41.3783 4.15625ZM43.7517 5.80781C45.2611 6.66094 44.6158 9.0125 42.8767 9.0125C42.1877 9.0125 41.6846 8.69531 41.3783 8.09375C41.0611 7.48125 41.0611 7.04375 41.3783 6.45312C41.8158 5.61094 42.8877 5.32656 43.7517 5.80781Z" fill="#00A4FF"/>
<path d="M46.0805 15.4004C45.1071 15.7504 44.3962 16.4285 44.0243 17.3582L43.8384 17.8285H34.3993H24.9493L24.7305 18.1129C24.3587 18.5832 24.5008 19.2285 25.0149 19.4582C25.2008 19.5457 27.9899 19.5785 34.5634 19.5785H43.8493L44.1118 20.1692C44.4727 20.9457 45.1509 21.591 45.9165 21.8864C46.4196 22.0723 46.704 22.1051 47.4149 22.0723C48.8258 21.9957 49.7665 21.3942 50.3899 20.202C50.6415 19.7207 50.6852 19.491 50.6852 18.7035C50.6962 17.6317 50.4883 17.052 49.8212 16.3192C48.9571 15.3567 47.3274 14.952 46.0805 15.4004ZM48.1259 17.1832C49.6352 18.0364 48.9899 20.3879 47.2509 20.3879C46.5618 20.3879 46.0587 20.0707 45.7524 19.4692C45.4352 18.8567 45.4352 18.4192 45.7524 17.8285C46.1899 16.9864 47.2618 16.702 48.1259 17.1832Z" fill="#00A4FF"/>
<path d="M28.2752 23.3516C27.9142 23.7126 27.9252 24.1173 28.3189 24.511L28.6361 24.8282H32.508H36.3689L38.0861 26.5454L39.8033 28.2735L39.5736 28.9298C38.7314 31.3907 40.9299 33.9719 43.4564 33.4688C44.2986 33.3048 44.8346 33.0313 45.3486 32.5173C46.5846 31.2813 46.6502 29.061 45.4799 27.7266C44.8455 27.0157 44.1127 26.6657 43.0955 26.6001C42.4392 26.5673 42.1549 26.6001 41.6736 26.786L41.0721 27.0157L39.1033 25.0469L37.1236 23.0782H32.8252H28.5377L28.2752 23.3516ZM43.708 28.5579C44.5174 28.9407 44.8564 30.0344 44.4189 30.8438C43.7846 32.0469 41.8814 32.0251 41.3017 30.811C40.908 29.9798 41.2471 28.9407 42.0346 28.5579C42.6142 28.2735 43.1174 28.2626 43.708 28.5579Z" fill="#00A4FF"/>
</svg>
