<svg width="56" height="56" viewBox="0 0 56 56" fill="none" xmlns="http://www.w3.org/2000/svg">
<g clip-path="url(#clip0_657_2819)">
<path d="M27.3984 0.273438C27.1359 0.525 27.125 0.6125 27.125 1.75C27.125 2.8875 27.1359 2.975 27.3984 3.22656C27.5625 3.40156 27.7922 3.5 28 3.5C28.2078 3.5 28.4375 3.40156 28.6016 3.22656C28.8641 2.975 28.875 2.8875 28.875 1.75C28.875 0.6125 28.8641 0.525 28.6016 0.273438C28.4375 0.0984375 28.2078 0 28 0C27.7922 0 27.5625 0.0984375 27.3984 0.273438Z" fill="#00A4FF"/>
<path d="M22.1488 1.69531C21.766 2.07812 21.8097 2.40625 22.3785 3.39062C22.9035 4.29844 23.2863 4.70312 23.6472 4.70312C23.9316 4.70312 24.5004 4.12344 24.5004 3.81719C24.5004 3.51094 23.4504 1.67344 23.1879 1.53125C22.8379 1.34531 22.4222 1.41094 22.1488 1.69531Z" fill="#00A4FF"/>
<path d="M32.7906 1.53125C32.5391 1.68437 31.5 3.52187 31.5 3.81719C31.5 4.12344 32.0687 4.70312 32.3531 4.70312C32.4734 4.70312 32.6922 4.60469 32.8453 4.48437C33.2172 4.18906 34.125 2.60312 34.125 2.24219C34.125 1.65156 33.3266 1.225 32.7906 1.53125Z" fill="#00A4FF"/>
<path d="M26.4802 4.53895C25.2771 4.80145 24.0083 5.51238 23.0786 6.45301C20.3442 9.18738 20.3224 13.5514 23.0239 16.2421C24.3583 17.5655 25.8239 18.2436 27.6067 18.3421C30.8005 18.5171 33.7317 16.4827 34.7052 13.3983C35.0442 12.3155 35.0442 10.4343 34.7052 9.35144C33.6005 5.87332 30.0239 3.77332 26.4802 4.53895ZM29.2583 6.28895C32.0583 7.02176 33.7974 9.88738 33.0864 12.6108C32.5942 14.503 31.1396 15.9686 29.2583 16.4608C26.5239 17.1718 23.6474 15.4327 22.9146 12.6327C21.9411 8.89207 25.5177 5.31551 29.2583 6.28895Z" fill="#00A4FF"/>
<path d="M18.3206 5.52344C18.0362 5.79688 17.9706 6.2125 18.1566 6.5625C18.2987 6.825 20.1362 7.875 20.4425 7.875C20.7487 7.875 21.3284 7.30625 21.3284 7.02188C21.3284 6.66094 20.9237 6.27813 20.0159 5.75312C19.0316 5.18438 18.7034 5.14062 18.3206 5.52344Z" fill="#00A4FF"/>
<path d="M35.9844 5.74219C35.0875 6.26719 34.6719 6.67188 34.6719 7.01094C34.6719 7.30625 35.2516 7.875 35.5469 7.875C35.8312 7.875 37.3734 7.04375 37.7125 6.70469C38.0406 6.37656 38.0297 5.8625 37.6797 5.52344C37.3078 5.14062 36.9359 5.18438 35.9844 5.74219Z" fill="#00A4FF"/>
<path d="M16.8984 10.7734C16.7234 10.9375 16.625 11.1672 16.625 11.375C16.625 11.5828 16.7234 11.8125 16.8984 11.9766C17.15 12.2391 17.2375 12.25 18.375 12.25C19.5125 12.25 19.6 12.2391 19.8516 11.9766C20.0266 11.8125 20.125 11.5828 20.125 11.375C20.125 11.1672 20.0266 10.9375 19.8516 10.7734C19.6 10.5109 19.5125 10.5 18.375 10.5C17.2375 10.5 17.15 10.5109 16.8984 10.7734Z" fill="#00A4FF"/>
<path d="M36.1484 10.7734C35.9734 10.9375 35.875 11.1672 35.875 11.375C35.875 11.5828 35.9734 11.8125 36.1484 11.9766C36.4 12.2391 36.4875 12.25 37.625 12.25C38.7625 12.25 38.85 12.2391 39.1016 11.9766C39.2766 11.8125 39.375 11.5828 39.375 11.375C39.375 11.1672 39.2766 10.9375 39.1016 10.7734C38.85 10.5109 38.7625 10.5 37.625 10.5C36.4875 10.5 36.4 10.5109 36.1484 10.7734Z" fill="#00A4FF"/>
<path d="M6.46406 13.3109C6.3 13.453 5.93906 14.3718 5.30469 16.2968C4.79063 17.828 4.375 19.1952 4.375 19.3374C4.375 19.4687 4.49531 19.7093 4.64844 19.8515C4.88906 20.103 4.99844 20.1249 5.85156 20.1249C6.51875 20.1249 6.78125 20.1577 6.78125 20.2562C6.78125 20.3327 6.62812 21.3609 6.43125 22.5421C6.09219 24.5984 6.09219 24.7077 6.26719 24.9812C6.48594 25.3093 6.92344 25.4515 7.29531 25.3093C7.4375 25.2546 9.00156 23.5484 10.7734 21.514C14.2844 17.4999 14.3062 17.4671 13.7266 16.8984C13.475 16.6359 13.3984 16.6249 12.1078 16.6249H10.7406L11.0578 15.389C11.4406 13.8905 11.4406 13.7265 11.1016 13.3984C10.8391 13.1249 10.8172 13.1249 8.77187 13.1249C6.95625 13.1249 6.67188 13.1468 6.46406 13.3109ZM9.06719 16.0999C8.69531 17.5655 8.68437 17.7296 8.95781 18.0577C9.14375 18.2874 9.28594 18.3312 10.1609 18.3749L11.1453 18.4296L9.83281 19.939C9.1 20.7702 8.4875 21.4265 8.45469 21.4046C8.43281 21.3718 8.4875 20.9124 8.575 20.3874C8.80469 19.0968 8.79375 18.9546 8.47656 18.6484C8.23594 18.4077 8.11562 18.3749 7.33906 18.3749H6.46406L7.01094 16.7562C7.30625 15.8702 7.56875 15.0827 7.60156 15.0062C7.63437 14.9187 7.91875 14.8749 8.52031 14.8749H9.38438L9.06719 16.0999Z" fill="#00A4FF"/>
<path d="M44.9641 13.3109C44.8 13.453 44.4391 14.3718 43.8047 16.2968C43.2906 17.828 42.875 19.1952 42.875 19.3374C42.875 19.4687 42.9953 19.7093 43.1484 19.8515C43.3891 20.103 43.4984 20.1249 44.3516 20.1249C45.0187 20.1249 45.2812 20.1577 45.2812 20.2562C45.2812 20.3327 45.1281 21.3609 44.9312 22.5421C44.5922 24.5984 44.5922 24.7077 44.7672 24.9812C44.9859 25.3093 45.4234 25.4515 45.7953 25.3093C45.9375 25.2546 47.5016 23.5484 49.2734 21.514C52.7844 17.4999 52.8062 17.4671 52.2266 16.8984C51.975 16.6359 51.8984 16.6249 50.6078 16.6249H49.2406L49.5578 15.389C49.9406 13.8905 49.9406 13.7265 49.6016 13.3984C49.3391 13.1249 49.3172 13.1249 47.2719 13.1249C45.4562 13.1249 45.1719 13.1468 44.9641 13.3109ZM47.5672 16.0999C47.1953 17.5655 47.1844 17.7296 47.4578 18.0577C47.6437 18.2874 47.7859 18.3312 48.6609 18.3749L49.6453 18.4296L48.3328 19.939C47.6 20.7702 46.9875 21.4265 46.9547 21.4046C46.9328 21.3718 46.9875 20.9124 47.075 20.3874C47.3047 19.0968 47.2937 18.9546 46.9766 18.6484C46.7359 18.4077 46.6156 18.3749 45.8391 18.3749H44.9641L45.5109 16.7562C45.8062 15.8702 46.0687 15.0827 46.1016 15.0062C46.1344 14.9187 46.4188 14.8749 47.0203 14.8749H47.8844L47.5672 16.0999Z" fill="#00A4FF"/>
<path d="M19.2504 15.4108C18.7473 15.7061 18.266 16.0343 18.1894 16.1436C17.9598 16.4608 18.0144 16.9311 18.3316 17.2483C18.6926 17.6093 19.0535 17.5546 20.0926 16.953C20.9348 16.4718 21.3285 16.078 21.3285 15.728C21.3285 15.4327 20.7379 14.8749 20.4316 14.8749C20.2894 14.8749 19.7644 15.1264 19.2504 15.4108Z" fill="#00A4FF"/>
<path d="M34.9895 15.1921C34.4098 15.7718 34.6504 16.2311 35.9082 16.953C36.9473 17.5546 37.3082 17.6093 37.6692 17.2483C38.0301 16.8874 38.0411 16.3733 37.7129 16.0452C37.3629 15.6952 35.8426 14.8749 35.5473 14.8749C35.4161 14.8749 35.1645 15.0171 34.9895 15.1921Z" fill="#00A4FF"/>
<path d="M23.1547 18.2656C22.7828 18.5609 21.875 20.1468 21.875 20.5077C21.875 21.0984 22.6406 21.514 23.1875 21.2187C23.45 21.0765 24.5 19.239 24.5 18.9327C24.5 18.6265 23.9312 18.0468 23.6469 18.0468C23.5266 18.0468 23.3078 18.1452 23.1547 18.2656Z" fill="#00A4FF"/>
<path d="M31.8172 18.364C31.6422 18.539 31.5 18.7906 31.5 18.9327C31.5 19.239 32.55 21.0765 32.8125 21.2187C33.3594 21.514 34.125 21.0984 34.125 20.5077C34.125 20.1468 33.2172 18.5609 32.8453 18.2656C32.4625 17.9702 32.2 17.9921 31.8172 18.364Z" fill="#00A4FF"/>
<path d="M27.3986 19.5234C27.1361 19.775 27.1252 19.8625 27.1252 21C27.1252 22.1375 27.1361 22.225 27.3986 22.4765L27.6611 22.75H22.4111H17.1611L16.9096 23.0015C16.7346 23.1765 16.6252 23.4828 16.5377 24.0625C16.4611 24.5109 16.3518 25.189 16.2861 25.5609L16.1658 26.25H9.77832H3.37988L3.13925 26.4906C2.93144 26.7093 2.67988 27.7593 1.433 33.939C-0.141997 41.7375 -0.120122 41.5953 0.503316 41.8796C0.689253 41.9671 2.25332 42 5.633 42H10.5002V44.1875V46.375H9.658C8.66269 46.375 8.19238 46.5937 7.92988 47.1625C7.84238 47.3593 7.62363 48.114 7.43769 48.8468C7.08769 50.3015 7.10957 50.7281 7.56894 51.1656C8.05019 51.6031 8.26894 51.625 13.1252 51.625C17.9814 51.625 18.2002 51.6031 18.6814 51.1656C19.1408 50.7281 19.1627 50.3015 18.8127 48.8468C18.6268 48.114 18.408 47.3593 18.3205 47.1625C18.058 46.5937 17.5877 46.375 16.6033 46.375H15.7502V45.9375V45.5H20.5627H25.3752V47.6875V49.875H24.0955C22.1377 49.875 22.0283 49.9843 21.4377 52.3468C21.1752 53.4078 21.1424 53.7359 21.2189 54.0421C21.3393 54.4796 21.6783 54.8406 22.1268 55.0046C22.5533 55.1687 33.4471 55.1687 33.8736 55.0046C34.3221 54.8406 34.6611 54.4796 34.7814 54.0421C34.858 53.7359 34.8252 53.4078 34.5627 52.3468C33.9721 49.9843 33.8627 49.875 31.9158 49.875H30.6252V47.6875V45.5H35.4377H40.2502V45.9375V46.375H39.408C38.4127 46.375 37.9424 46.5937 37.6799 47.1625C37.5924 47.3593 37.3736 48.114 37.1877 48.8468C36.8377 50.3015 36.8596 50.7281 37.3189 51.1656C37.8002 51.6031 38.0189 51.625 42.8752 51.625C47.7314 51.625 47.9502 51.6031 48.4314 51.1656C48.8908 50.7281 48.9127 50.3015 48.5627 48.8468C48.3768 48.114 48.158 47.3593 48.0705 47.1625C47.808 46.5937 47.3377 46.375 46.3533 46.375H45.5002V44.1875V42H50.3674C53.7471 42 55.3111 41.9671 55.4971 41.8796C56.1205 41.5953 56.1424 41.7375 54.5674 33.939C53.3205 27.7593 53.0689 26.7093 52.8611 26.4906L52.6205 26.25H46.2221H39.8346L39.7143 25.5609C39.6486 25.189 39.5393 24.5109 39.4627 24.0625C39.3752 23.4828 39.2658 23.1765 39.0908 23.0015L38.8393 22.75H33.5893H28.3393L28.6018 22.4765C28.8643 22.225 28.8752 22.1375 28.8752 21C28.8752 19.8625 28.8643 19.775 28.6018 19.5234C28.4377 19.3484 28.208 19.25 28.0002 19.25C27.7924 19.25 27.5627 19.3484 27.3986 19.5234ZM20.0924 24.7406C20.0596 24.8828 19.9939 25.2765 19.9611 25.6156L19.8846 26.25H18.9002C17.9377 26.25 17.9158 26.25 17.9705 25.9984C18.0033 25.8671 18.0689 25.5062 18.1127 25.2109C18.1455 24.9046 18.2002 24.6312 18.233 24.5765C18.2549 24.5328 18.7033 24.5 19.2174 24.5C20.1252 24.5 20.1471 24.5109 20.0924 24.7406ZM23.6252 24.9593C23.6252 25.2218 23.5924 25.6156 23.5596 25.8343L23.483 26.25H22.5643H21.6346L21.7002 25.725C21.7439 25.4406 21.8096 25.0468 21.8424 24.85L21.8971 24.5H22.7611H23.6252V24.9593ZM27.1252 25.375V26.25H26.1846H25.233L25.3096 25.8343C25.3424 25.6156 25.3752 25.2218 25.3752 24.9593V24.5H26.2502H27.1252V25.375ZM30.6252 24.9593C30.6252 25.2218 30.658 25.6156 30.6908 25.8343L30.7674 26.25H29.8158H28.8752V25.375V24.5H29.7502H30.6252V24.9593ZM34.158 24.85C34.1908 25.0468 34.2564 25.4406 34.3002 25.725L34.3658 26.25H33.4361H32.5174L32.4408 25.8343C32.408 25.6156 32.3752 25.2218 32.3752 24.9593V24.5H33.2393H34.1033L34.158 24.85ZM37.7783 24.6859C37.8221 24.8609 38.0627 26.1187 38.0627 26.2171C38.0627 26.239 37.6252 26.25 37.0893 26.25H36.1158L36.0393 25.6156C36.0064 25.2765 35.9408 24.8828 35.908 24.7406C35.8533 24.5109 35.8752 24.5 36.783 24.5C37.5814 24.5 37.7236 24.5328 37.7783 24.6859ZM6.84707 28.2953C6.81425 28.4703 6.75957 28.864 6.72675 29.1703L6.65019 29.75H5.40332C3.98144 29.75 4.07988 29.8375 4.28769 28.7L4.408 28H5.66582H6.91269L6.84707 28.2953ZM11.3752 28.875V29.75H9.88769H8.40019L8.46582 29.3125C8.49863 29.0718 8.56425 28.6781 8.59707 28.4375L8.66269 28H10.0189H11.3752V28.875ZM15.8268 28.3171C15.7939 28.4812 15.7283 28.875 15.6846 29.1921L15.608 29.75H14.3721H13.1252V28.875V28H14.5033H15.8924L15.8268 28.3171ZM19.5236 28.7875C19.4908 29.225 19.4252 29.6187 19.4033 29.6625C19.3158 29.7937 17.3908 29.7718 17.3908 29.6296C17.3908 29.575 17.4455 29.1812 17.5111 28.7546L17.6424 28H18.6268H19.6111L19.5236 28.7875ZM23.4283 28.875L23.3846 29.75H22.2908H21.1971L21.2736 28.9515C21.3174 28.525 21.3721 28.1312 21.4049 28.0765C21.4268 28.0328 21.908 28 22.4549 28H23.4611L23.4283 28.875ZM27.1252 28.875V29.75H26.1408H25.1564V28.9515C25.1564 28.5031 25.1893 28.1093 25.233 28.0765C25.2658 28.0328 25.7143 28 26.2174 28H27.1252V28.875ZM30.8221 28.8968L30.8549 29.75H29.8596H28.8752V28.875V27.989L29.8377 28.0218L30.7893 28.0546L30.8221 28.8968ZM34.5955 28.0765C34.6283 28.1312 34.683 28.525 34.7268 28.9515L34.8033 29.75H33.7096H32.6158L32.5721 28.875L32.5393 28H33.5455C34.0924 28 34.5736 28.0328 34.5955 28.0765ZM38.4346 28.514C38.4783 28.8093 38.5439 29.2031 38.5768 29.389L38.6314 29.75H37.6471C37.1002 29.75 36.6299 29.7171 36.5971 29.6625C36.5752 29.6187 36.5096 29.225 36.4768 28.7875L36.3893 28H37.3846H38.3689L38.4346 28.514ZM42.8752 28.875V29.75H41.6283H40.3924L40.3158 29.1921C40.2721 28.875 40.2064 28.4812 40.1736 28.3171L40.1189 28H41.4971H42.8752V28.875ZM47.4033 28.4375C47.4361 28.6781 47.5018 29.0718 47.5346 29.3125L47.6002 29.75H46.1127H44.6252V28.875V28H45.9814H47.3377L47.4033 28.4375ZM51.7127 28.7C51.9205 29.8375 52.0189 29.75 50.5971 29.75H49.3502L49.2736 29.1703C49.2408 28.864 49.1861 28.4703 49.1533 28.2953L49.0877 28H50.3346H51.5924L51.7127 28.7ZM6.40957 31.7953C6.37675 31.9703 6.32207 32.364 6.28925 32.6703L6.21269 33.25H4.80175C3.24863 33.25 3.32519 33.2937 3.50019 32.4843C3.74082 31.3796 3.55488 31.5 5.09707 31.5H6.47519L6.40957 31.7953ZM11.3752 32.375V33.25H9.66894H7.96269L8.02832 32.8125C8.06113 32.5718 8.12675 32.1781 8.15957 31.9375L8.22519 31.5H9.80019H11.3752V32.375ZM15.2689 31.6859C15.2471 31.7953 15.1924 32.1015 15.1486 32.375C15.0174 33.2937 15.0721 33.25 14.0439 33.25H13.1252V32.375V31.5H14.2299C15.2252 31.5 15.3236 31.5218 15.2689 31.6859ZM19.0971 32.014C19.0533 32.3093 18.9877 32.7031 18.9549 32.889L18.9002 33.25H17.8611H16.8111L16.8877 32.6265C17.0299 31.4234 16.9424 31.5 18.1236 31.5H19.1627L19.0971 32.014ZM23.2971 32.1234C23.2971 33.2937 23.3518 33.25 21.908 33.25C20.6611 33.25 20.6502 33.25 20.7049 32.9984C20.7377 32.8671 20.8033 32.4734 20.8361 32.1234L20.9127 31.5H22.1049H23.2971V32.1234ZM27.1252 32.375V33.25H26.0971C25.5283 33.25 25.0471 33.2171 25.0252 33.1625C25.0033 33.1187 25.0033 32.725 25.0252 32.2875L25.0689 31.5H26.0971H27.1252V32.375ZM30.9752 32.2875C30.9971 32.725 30.9971 33.1187 30.9752 33.1625C30.9533 33.2171 30.4721 33.25 29.9033 33.25H28.8752V32.375V31.5H29.9033H30.9314L30.9752 32.2875ZM35.1643 32.1234C35.1971 32.4734 35.2627 32.8671 35.2955 32.9984C35.3502 33.25 35.3393 33.25 34.0924 33.25C32.6486 33.25 32.7033 33.2937 32.7033 32.1234V31.5H33.8955H35.0877L35.1643 32.1234ZM38.9814 31.7515C39.0143 31.8937 39.0689 32.2875 39.1127 32.6265L39.1893 33.25H38.1393H37.1002L37.0455 32.889C37.0127 32.7031 36.9471 32.3093 36.9033 32.014L36.8377 31.5H37.8768C38.8721 31.5 38.9158 31.5109 38.9814 31.7515ZM42.8752 32.375V33.25H41.9564C40.9283 33.25 40.983 33.2937 40.8518 32.375C40.808 32.1015 40.7533 31.7953 40.7314 31.6859C40.6768 31.5218 40.7752 31.5 41.7705 31.5H42.8752V32.375ZM47.8408 31.9375C47.8736 32.1781 47.9393 32.5718 47.9721 32.8125L48.0377 33.25H46.3314H44.6252V32.375V31.5H46.2002H47.7752L47.8408 31.9375ZM52.3361 31.7406C52.5221 32.55 52.6096 32.9875 52.6096 33.1078C52.6096 33.2171 52.2596 33.25 51.1986 33.25H49.7877L49.7111 32.6703C49.6783 32.364 49.6236 31.9703 49.5908 31.7953L49.5252 31.5H50.9033C52.2377 31.5 52.2814 31.5109 52.3361 31.7406ZM5.97207 35.2953C5.93925 35.4703 5.88457 35.864 5.85175 36.1703L5.77519 36.75H4.25488C2.52675 36.75 2.64707 36.8484 2.86582 35.7L2.98613 35H4.51738H6.03769L5.97207 35.2953ZM11.3752 35.875V36.75H9.45019H7.52519L7.59082 36.3125C7.62363 36.0718 7.68925 35.6781 7.72207 35.4375L7.78769 35H9.58144H11.3752V35.875ZM14.6564 35.1859C14.6564 35.2843 14.6018 35.6781 14.5361 36.0609L14.4158 36.75H13.7705H13.1252V35.875V35H13.8908C14.5361 35 14.6564 35.0328 14.6564 35.1859ZM18.6596 35.1859C18.6377 35.2953 18.5721 35.689 18.5393 36.0609L18.4627 36.75H17.3143C16.1768 36.75 16.1658 36.75 16.2205 36.4984C16.2533 36.3671 16.3189 36.0062 16.3627 35.7109C16.3955 35.4046 16.4502 35.1312 16.483 35.0765C16.5049 35.0328 17.0189 35 17.6205 35C18.6158 35 18.7143 35.0218 18.6596 35.1859ZM23.1439 35.2406C23.1111 35.3828 23.0783 35.7765 23.0783 36.1156V36.75H21.6455H20.2127L20.2893 36.1703C20.3221 35.864 20.3768 35.4703 20.4096 35.2953L20.4752 35H21.8424C23.2096 35 23.2096 35 23.1439 35.2406ZM27.1252 35.875V36.75H25.9768H24.8283V36.1156C24.8283 34.9781 24.8064 35 26.0424 35H27.1252V35.875ZM31.1064 35.2406C31.1393 35.3828 31.1721 35.7765 31.1721 36.1156V36.75H30.0236H28.8752V35.875V35H29.958C30.9861 35 31.0408 35.0109 31.1064 35.2406ZM35.5908 35.2953C35.6236 35.4703 35.6783 35.864 35.7111 36.1703L35.7877 36.75H34.3549H32.9221V36.1156C32.9221 35.7765 32.8893 35.3828 32.8564 35.2406C32.7908 35 32.7908 35 34.158 35H35.5252L35.5908 35.2953ZM39.5283 35.1859C39.5721 35.3609 39.8127 36.6187 39.8127 36.7171C39.8127 36.739 39.2986 36.75 38.6752 36.75H37.5377L37.4611 36.0609C37.4283 35.689 37.3627 35.2953 37.3408 35.1859C37.2861 35.0218 37.3846 35 38.3799 35C39.3205 35 39.4736 35.0218 39.5283 35.1859ZM42.8752 35.875V36.75H42.2299H41.5846L41.4643 36.0609C41.2674 34.9453 41.2346 35 42.1096 35H42.8752V35.875ZM48.2783 35.4375C48.3111 35.6781 48.3768 36.0718 48.4096 36.3125L48.4752 36.75H46.5502H44.6252V35.875V35H46.4189H48.2127L48.2783 35.4375ZM53.1346 35.7C53.3533 36.8484 53.4736 36.75 51.7455 36.75H50.2252L50.1486 36.1703C50.1158 35.864 50.0611 35.4703 50.0283 35.2953L49.9627 35H51.483H53.0143L53.1346 35.7ZM5.53457 38.7953C5.50175 38.9703 5.44707 39.364 5.41425 39.6703L5.33769 40.25H3.65332C2.37363 40.25 1.96894 40.2171 1.96894 40.1078C1.96894 39.9875 2.05644 39.55 2.24238 38.7406C2.29707 38.5 2.32988 38.5 3.94863 38.5H5.60019L5.53457 38.7953ZM11.3752 39.375V40.25H9.23144H7.08769L7.15332 39.8125C7.18613 39.5718 7.25175 39.1781 7.28457 38.9375L7.35019 38.5H9.36269H11.3752V39.375ZM14.0768 38.8171C14.0439 38.9812 13.9783 39.375 13.9346 39.6921C13.8689 40.239 13.858 40.25 13.4971 40.25H13.1252V39.375V38.5H13.6283C14.1314 38.5 14.1314 38.5 14.0768 38.8171ZM18.1018 39.2328C18.058 39.6265 18.0033 40.0203 17.9705 40.1078C17.9049 40.2937 15.6408 40.3156 15.6408 40.1296C15.6408 40.075 15.6955 39.6812 15.7611 39.2546L15.8924 38.5H17.0408H18.1783L18.1018 39.2328ZM22.9471 39.3421L22.9143 40.1953L21.3393 40.2281L19.7643 40.2609L19.8518 39.4625C19.8846 39.025 19.9502 38.6312 19.9721 38.5875C20.0049 38.5328 20.6939 38.5 21.5033 38.5H22.9799L22.9471 39.3421ZM27.1252 39.375V40.25H25.9221H24.7189V39.375V38.5H25.9221H27.1252V39.375ZM31.2814 39.375V40.25H30.0783H28.8752V39.375V38.5H30.0783H31.2814V39.375ZM36.0283 38.5875C36.0502 38.6312 36.1158 39.025 36.1486 39.4625L36.2361 40.2609L34.6611 40.2281L33.0861 40.1953L33.0533 39.3421L33.0205 38.5H34.4971C35.3064 38.5 35.9955 38.5328 36.0283 38.5875ZM40.1846 39.0578C40.2283 39.375 40.2939 39.7687 40.3268 39.9328L40.3924 40.25H39.233C38.3799 40.25 38.0736 40.2171 38.0299 40.1078C37.9971 40.0203 37.9424 39.6265 37.8986 39.2328L37.8221 38.5H38.9705H40.108L40.1846 39.0578ZM42.8752 39.375V40.25H42.5033C42.1424 40.25 42.1314 40.239 42.0658 39.6921C42.0221 39.375 41.9564 38.9812 41.9236 38.8171C41.8689 38.5 41.8689 38.5 42.3721 38.5H42.8752V39.375ZM48.7158 38.9375C48.7486 39.1781 48.8143 39.5718 48.8471 39.8125L48.9127 40.25H46.7689H44.6252V39.375V38.5H46.6377H48.6502L48.7158 38.9375ZM53.758 38.7406C53.9439 39.55 54.0314 39.9875 54.0314 40.1078C54.0314 40.2171 53.6268 40.25 52.3471 40.25H50.6627L50.5861 39.6703C50.5533 39.364 50.4986 38.9703 50.4658 38.7953L50.4002 38.5H52.0518C53.6705 38.5 53.7033 38.5 53.758 38.7406ZM13.5189 42.1859C13.4971 42.2953 13.3877 42.8859 13.2893 43.5093C13.0705 44.8109 13.158 45.1718 13.683 45.3906C13.9564 45.5109 14.0002 45.5875 14.0002 45.9484V46.375H13.1252H12.2502V44.1875V42H12.9174C13.4971 42 13.5736 42.0218 13.5189 42.1859ZM17.6752 42.4375C17.6424 42.6781 17.5768 43.0718 17.5439 43.3125L17.4783 43.75H16.2752H15.0611L15.1377 43.1265C15.2799 41.9125 15.1705 42 16.5377 42H17.7408L17.6752 42.4375ZM22.8158 42.4046C22.783 42.6343 22.7502 43.0281 22.7502 43.2796V43.75H20.9893H19.2283L19.2939 43.4437C19.3268 43.2796 19.3814 42.8859 19.4143 42.5687L19.4908 42H21.1861H22.8924L22.8158 42.4046ZM27.1252 42.875V43.75H25.8127H24.5002V43.2796C24.5002 43.0281 24.533 42.6343 24.5658 42.4046L24.6424 42H25.8783H27.1252V42.875ZM31.4346 42.4046C31.4674 42.6343 31.5002 43.0281 31.5002 43.2796V43.75H30.1877H28.8752V42.875V42H30.1221H31.358L31.4346 42.4046ZM36.5861 42.5687C36.6189 42.8859 36.6736 43.2796 36.7064 43.4437L36.7721 43.75H35.0111H33.2502V43.2796C33.2502 43.0281 33.2174 42.6343 33.1846 42.4046L33.108 42H34.8143H36.5096L36.5861 42.5687ZM40.7314 42.2515C40.7643 42.3937 40.8189 42.7875 40.8627 43.1265L40.9393 43.75H39.7252H38.5221L38.4564 43.3125C38.4236 43.0718 38.358 42.6781 38.3252 42.4375L38.2596 42H39.4627C40.6221 42 40.6658 42.0109 40.7314 42.2515ZM43.7502 44.1875V46.375H42.8752H42.0002V45.9484C42.0002 45.5875 42.0439 45.5109 42.3174 45.3906C42.8424 45.1718 42.9299 44.8109 42.7111 43.5093C42.6127 42.8859 42.5033 42.2953 42.4814 42.1859C42.4268 42.0218 42.5033 42 43.083 42H43.7502V44.1875ZM28.8752 47.6875V49.875H28.0002H27.1252V47.6875V45.5H28.0002H28.8752V47.6875ZM17.0408 49L17.2596 49.875H13.1252H8.99082L9.20957 49L9.42832 48.125H13.1252H16.8221L17.0408 49ZM46.7908 49L47.0096 49.875H42.8752H38.7408L38.9596 49L39.1783 48.125H42.8752H46.5721L46.7908 49ZM32.7908 52.5L33.0096 53.375H28.0002H22.9908L23.2096 52.5L23.4283 51.625H28.0002H32.5721L32.7908 52.5Z" fill="#00A4FF"/>
</g>
<defs>
<clipPath id="clip0_657_2819">
<rect width="56" height="56" fill="white"/>
</clipPath>
</defs>
</svg>
