<svg width="18" height="18" viewBox="0 0 18 18" fill="none" xmlns="http://www.w3.org/2000/svg">
<path d="M4.4104 0.875C4.08352 0.875 3.76102 0.9925 3.49227 1.20687L3.45352 1.22625L3.43415 1.24625L1.48102 3.25812L1.5004 3.27687C1.21382 3.5371 1.01077 3.8764 0.916882 4.25193C0.822998 4.62747 0.842489 5.02241 0.972896 5.38687C0.975396 5.39187 0.970396 5.40125 0.972896 5.40625C1.5029 6.9225 2.8579 9.85 5.50415 12.4962C8.1604 15.1525 11.1266 16.4537 12.5941 17.0275H12.6135C12.9813 17.1491 13.3743 17.1733 13.7542 17.098C14.1341 17.0226 14.4881 16.8502 14.7816 16.5975L16.7541 14.625C17.2716 14.1075 17.2716 13.2087 16.7541 12.6912L14.2154 10.1525L14.1954 10.1131C13.6779 9.59562 12.7604 9.59562 12.2423 10.1131L10.9923 11.3631C10.0542 10.9124 9.19131 10.3196 8.43415 9.60562C7.41102 8.62875 6.88852 7.50562 6.69602 7.06625L7.94602 5.81625C8.47102 5.29125 8.4804 4.4175 7.92602 3.9025L7.9454 3.8825L7.88727 3.82437L5.38727 1.24625L5.3679 1.22687L5.32852 1.20687C5.06912 0.995064 4.74527 0.878002 4.4104 0.875ZM4.4104 2.125C4.46149 2.12797 4.50992 2.14876 4.54727 2.18375L7.04727 4.74187L7.10602 4.80062C7.10102 4.79562 7.14227 4.86187 7.06665 4.9375L5.50415 6.5L5.21102 6.77375L5.34852 7.16375C5.34852 7.16375 6.06602 9.08562 7.57477 10.5237L7.71165 10.6406C9.16352 11.9662 10.8754 12.6912 10.8754 12.6912L11.266 12.8675L13.1216 11.0112C13.2291 10.9044 13.2091 10.9044 13.3166 11.0112L15.8754 13.5712C15.9829 13.6781 15.9829 13.6394 15.8754 13.7462L13.961 15.6606C13.6735 15.9075 13.3679 15.9587 13.0048 15.8369C11.5885 15.28 8.83665 14.0712 6.3829 11.6181C3.90977 9.14437 2.61852 6.33937 2.1454 4.9775C2.04977 4.72312 2.1179 4.3475 2.3404 4.15687L2.37915 4.1175L4.27415 2.18437C4.31108 2.14942 4.35904 2.12843 4.40977 2.125H4.4104Z" fill="#FCFCFC"/>
</svg>
