<svg width="18" height="16" viewBox="0 0 18 16" fill="none" xmlns="http://www.w3.org/2000/svg">
<path d="M18 2.4173C17.3377 2.7113 16.626 2.9093 15.879 2.99855C16.6418 2.5418 17.2275 1.81805 17.5028 0.955547C16.7895 1.37855 15.999 1.68605 15.1575 1.8518C14.4847 1.13405 13.524 0.685547 12.462 0.685547C10.0777 0.685547 8.32575 2.91005 8.86425 5.2193C5.796 5.06555 3.075 3.59555 1.25325 1.3613C0.28575 3.02105 0.7515 5.1923 2.3955 6.2918C1.791 6.2723 1.221 6.10655 0.72375 5.8298C0.68325 7.54055 1.9095 9.14105 3.6855 9.4973C3.16575 9.6383 2.5965 9.6713 2.0175 9.5603C2.487 11.0273 3.8505 12.0945 5.4675 12.1245C3.915 13.3418 1.959 13.8855 0 13.6545C1.63425 14.7023 3.576 15.3135 5.661 15.3135C12.5175 15.3135 16.3912 9.5228 16.1572 4.32905C16.8787 3.8078 17.505 3.15755 18 2.4173Z" fill="#FCFCFC"/>
</svg>
