<svg width="49" height="48" viewBox="0 0 49 48" fill="none" xmlns="http://www.w3.org/2000/svg">
<path d="M10.1672 0H1.76452C1.02677 0 0.428711 0.598061 0.428711 1.33581V9.73848C0.428711 10.4762 1.02677 11.0743 1.76452 11.0743H10.1672C10.9049 11.0743 11.503 10.4762 11.503 9.73848V1.33581C11.503 0.598061 10.9049 0 10.1672 0Z" fill="#092357"/>
<path fill-rule="evenodd" clip-rule="evenodd" d="M42.885 0C45.9466 0 48.4286 2.48193 48.4286 5.5436C48.4286 7.59887 47.3101 9.39286 45.6487 10.3502L45.6487 19.1902C47.3347 20.1411 48.4731 21.9487 48.4731 24.0223C48.4731 27.0839 45.9912 29.5659 42.9295 29.5659C39.8678 29.5659 37.3859 27.0839 37.3859 24.0223C37.3859 21.9896 38.4799 20.2125 40.1112 19.2475L40.1113 10.3445C39.2637 9.85338 38.5606 9.14745 38.0729 8.2979H29.2629C28.3069 9.96454 26.51 11.0872 24.4508 11.0872C21.3892 11.0872 18.9072 8.60527 18.9072 5.5436C18.9072 2.48193 21.3892 0 24.4508 0C26.4982 0 28.2862 1.10983 29.2463 2.76067H38.0895C39.0496 1.10983 40.8377 0 42.885 0Z" fill="#687FCA"/>
<path d="M28.6243 18.457H1.76452C1.02677 18.457 0.428711 19.0551 0.428711 19.7928V28.1955C0.428711 28.9333 1.02677 29.5313 1.76452 29.5313H28.6243C29.362 29.5313 29.9601 28.9333 29.9601 28.1955V19.7928C29.9601 19.0551 29.362 18.457 28.6243 18.457Z" fill="#092357"/>
<path d="M47.0815 36.9141H1.76452C1.02677 36.9141 0.428711 37.5121 0.428711 38.2499V46.6525C0.428711 47.3903 1.02677 47.9883 1.76452 47.9883H47.0815C47.8192 47.9883 48.4173 47.3903 48.4173 46.6525V38.2499C48.4173 37.5121 47.8192 36.9141 47.0815 36.9141Z" fill="#092357"/>
</svg>
